<svg xmlns="http://www.w3.org/2000/svg" viewBox="0 10.449999809265137 84.86000061035156 38.53315734863281" data-asc="0.9775390625" width="84.86000061035156" height="38.53315734863281"><defs/><g fill="#750000"><g transform="translate(0, 0)"><path d="M35.64 15.43Q35.40 15.58 35.16 15.87Q34.91 16.16 34.81 16.50Q34.72 16.85 34.79 17.14Q34.86 17.43 35.25 17.63Q35.25 18.21 34.91 18.36Q35.01 18.85 34.89 19.38Q34.77 19.92 35.06 20.26Q34.86 20.41 34.91 20.78Q34.96 21.14 34.86 21.29Q35.16 21.97 34.89 22.75Q34.62 23.54 34.72 24.46Q34.72 25.68 34.57 26.34Q34.42 27.00 34.52 27.54Q34.42 27.69 34.30 27.86Q34.18 28.03 33.89 28.03Q33.79 27.93 33.76 27.69Q33.74 27.44 33.84 27.34Q33.59 27.25 33.47 26.98Q33.35 26.71 33.28 26.42Q33.20 26.12 33.13 25.83Q33.06 25.54 32.91 25.34Q32.81 24.61 32.62 23.75Q32.42 22.90 32.13 22.22Q32.03 22.02 31.98 21.70Q31.93 21.39 31.91 21.02Q31.88 20.65 31.81 20.31Q31.74 19.97 31.49 19.73Q31.25 19.78 31.18 19.68Q31.10 19.58 30.91 19.68Q30.86 19.53 30.81 19.41Q30.76 19.29 30.76 19.14Q30.86 18.80 30.93 18.60Q31.01 18.41 31.10 18.21Q30.22 18.02 30.15 17.68Q30.08 17.33 30.03 16.80Q29.69 16.55 29.52 16.26Q29.35 15.97 29.10 15.72Q28.86 15.82 28.64 15.77Q28.42 15.72 28.32 15.97Q27.93 15.63 27.91 15.58Q27.88 15.53 27.78 15.28Q27.88 15.19 28.08 15.19Q28.27 15.19 28.37 15.14Q28.17 14.60 27.64 14.40Q27.10 14.21 26.81 13.77Q26.61 13.53 26.42 13.33Q26.22 13.13 26.03 12.96Q25.83 12.79 25.59 12.70Q25.34 12.60 25 12.70Q24.90 12.55 24.76 12.43Q24.61 12.30 24.51 12.21Q23.73 12.35 23.05 12.30Q22.36 12.26 21.88 12.35Q21.88 12.74 21.88 13.04Q21.88 13.33 21.68 13.57Q21.83 13.87 21.90 14.01Q21.97 14.16 21.73 14.21Q21.88 14.31 21.92 14.58Q21.97 14.84 22.07 14.99Q21.83 15.23 22.00 15.60Q22.17 15.97 22.17 16.31Q22.51 16.80 22.31 16.99Q22.12 17.19 22.22 17.68Q22.31 18.75 22.27 19.31Q22.22 19.87 22.31 20.51Q22.27 20.95 22.29 21.31Q22.31 21.68 22.12 21.83Q22.31 22.31 22.17 22.78Q22.02 23.24 22.27 23.54Q22.22 24.37 22.27 25.07Q22.31 25.78 22.22 26.37Q22.46 26.51 22.51 26.86Q22.56 27.20 22.75 27.39Q22.31 27.59 22.29 28.13Q22.27 28.66 22.07 28.91Q22.31 29.15 22.22 29.54Q22.12 29.93 22.02 30.18Q22.22 30.37 22.12 30.62Q22.02 30.86 22.02 31.01Q22.07 31.20 22.17 31.30Q22.27 31.40 22.31 31.49Q22.27 31.69 22.17 31.79Q22.07 31.88 21.97 32.03Q21.92 32.47 22.12 32.64Q22.31 32.81 22.36 33.20Q22.12 33.89 21.83 34.08Q21.73 34.52 21.80 34.69Q21.88 34.86 21.88 35.30Q22.12 35.74 21.95 35.91Q21.78 36.08 21.88 36.33Q22.51 36.47 22.39 36.67Q22.27 36.87 22.07 37.08Q21.88 37.30 21.70 37.52Q21.53 37.74 21.53 37.99Q21.53 38.28 21.75 38.40Q21.97 38.53 21.73 38.87Q22.22 38.62 22.27 38.75Q22.31 38.87 22.46 38.92Q22.12 39.31 21.85 39.84Q21.58 40.38 21.97 40.82Q21.83 41.16 21.92 41.50Q22.02 41.85 22.17 42.04Q21.97 42.72 22.05 42.87Q22.12 43.02 22.07 43.26Q21.88 43.55 22.02 43.73Q22.17 43.90 21.88 43.99Q22.02 44.38 21.97 44.97Q21.92 45.56 22.17 45.95Q22.56 46.34 23.10 46.70Q23.63 47.07 24.51 46.78Q25.59 47.31 26.66 47.34Q27.73 47.36 28.86 47.36Q29.00 47.46 29.13 47.61Q29.25 47.75 29.25 48.05Q29.00 48.10 28.76 48.34Q28.61 48.29 28.52 48.54Q28.42 48.78 28.32 48.97Q27.69 49.02 27.22 48.88Q26.76 48.73 26.27 48.97Q25.98 48.83 25.49 48.68Q25 48.54 24.71 48.78Q23.88 48.58 23.00 48.66Q22.12 48.73 21.14 48.83Q20.46 48.68 19.92 48.68Q19.38 48.68 18.80 48.73Q17.97 48.58 17.16 48.61Q16.36 48.63 15.58 48.83Q14.94 48.68 14.33 48.66Q13.72 48.63 12.94 48.58Q12.06 48.49 11.47 48.49Q10.89 48.49 10.30 48.44Q9.72 48.39 9.13 48.39Q8.54 48.39 8.01 48.54Q7.47 48.39 6.88 48.49Q6.30 48.58 5.57 48.49Q5.66 47.71 6.01 47.58Q6.35 47.46 6.74 47.46Q7.13 47.46 7.52 47.49Q7.91 47.51 8.30 47.51Q8.84 47.51 9.35 47.36Q9.86 47.22 10.30 47.46Q11.18 47.27 11.60 47.22Q12.01 47.17 12.30 46.97Q12.84 46.73 13.35 46.00Q13.87 45.26 14.31 44.92Q14.40 44.68 14.23 44.63Q14.06 44.58 14.01 44.43Q14.06 44.19 14.14 43.99Q14.21 43.80 14.01 43.55Q14.06 43.02 14.26 42.80Q14.45 42.58 14.60 42.33Q14.60 41.70 14.67 41.19Q14.75 40.67 14.36 40.33Q14.65 39.65 14.67 39.36Q14.70 39.06 14.79 38.72Q14.21 38.09 14.45 37.72Q14.70 37.35 14.70 36.87Q14.70 36.33 14.67 35.82Q14.65 35.30 14.55 34.81Q14.75 34.47 14.45 34.28Q14.01 34.33 13.77 34.33Q13.87 34.03 14.14 33.91Q14.40 33.79 14.55 33.54Q14.50 33.20 14.55 32.89Q14.60 32.57 14.60 32.18Q14.40 31.25 14.67 30.64Q14.94 30.03 14.60 29.35Q14.06 29.35 14.01 29.20Q13.96 29.05 14.01 28.81Q14.21 28.32 14.36 28.22Q14.50 28.13 14.60 27.93Q14.55 27.54 14.50 27.20Q14.45 26.86 14.06 26.81Q13.82 26.37 13.99 26.10Q14.16 25.83 14.45 25.63Q14.50 25.10 14.26 24.76Q14.01 24.41 14.01 23.97Q14.31 23.78 14.28 23.29Q14.26 22.80 14.06 22.51Q14.26 22.27 14.11 21.92Q13.96 21.58 14.11 21.39Q13.62 21.24 13.57 21.12Q13.53 21.00 13.53 20.85Q13.57 20.41 13.84 20.17Q14.11 19.92 14.06 19.43Q13.53 19.68 13.50 19.56Q13.48 19.43 13.33 19.38Q13.67 18.99 13.48 19.02Q13.28 19.04 13.33 18.85Q13.62 18.80 13.70 18.68Q13.77 18.55 13.67 18.36Q14.21 17.63 14.06 17.36Q13.92 17.09 13.77 16.85Q14.01 16.46 14.09 15.92Q14.16 15.38 13.77 15.14Q13.92 14.40 13.99 13.84Q14.06 13.28 13.96 12.70Q12.70 12.60 11.52 12.67Q10.35 12.74 9.33 13.13Q9.33 13.48 9.13 13.62Q8.94 13.77 8.89 14.11Q8.64 14.01 8.52 14.14Q8.40 14.26 8.30 14.16Q8.11 14.60 7.62 14.75Q7.13 14.89 7.13 15.38Q6.88 15.38 6.76 15.48Q6.64 15.58 6.54 15.72Q6.45 15.87 6.37 15.99Q6.30 16.11 6.10 16.16Q6.10 16.70 5.76 17.11Q5.42 17.53 5.32 18.12Q5.57 18.36 5.42 18.46Q5.27 18.55 5.18 18.70Q5.08 19.14 5.00 19.17Q4.93 19.19 4.74 19.19Q4.39 19.87 4.20 20.75Q4.00 21.63 3.56 22.31Q3.22 23.05 3.27 23.63Q3.32 24.22 3.08 24.76Q2.69 25.34 2.69 25.68Q2.69 26.03 2.59 26.32Q2.34 26.90 2.37 27.15Q2.39 27.39 2.05 27.44Q1.90 27.39 1.86 27.27Q1.81 27.15 1.66 27.05Q2.10 25.63 2.42 24.07Q2.73 22.51 3.27 21.24Q3.37 21.09 3.47 21.00Q3.56 20.90 3.56 20.65Q3.08 20.41 3.17 20.34Q3.27 20.26 3.27 20.12Q3.61 20.07 3.61 19.85Q3.61 19.63 3.91 19.53Q3.61 19.04 3.71 19.04Q3.81 19.04 3.91 18.95Q3.66 18.85 3.54 19.02Q3.42 19.19 3.17 19.19Q2.64 19.58 2.81 19.63Q2.98 19.68 2.93 19.78Q2.69 19.92 2.54 19.82Q2.39 19.73 2.20 19.73Q2.25 20.17 2.03 20.31Q1.81 20.46 1.46 20.65Q1.22 21.34 1.34 21.92Q1.46 22.51 1.46 23.14Q1.46 23.58 1.29 24.19Q1.12 24.80 1.51 25.24Q1.32 25.78 1.44 26.27Q1.56 26.76 1.51 27.39L1.03 27.64Q0.78 27.29 0.85 26.90Q0.93 26.51 0.63 26.27Q0.78 25.20 0.71 24.19Q0.63 23.19 0.59 22.17Q0.59 21.97 0.63 21.80Q0.68 21.63 0.68 21.48Q0.78 20.95 0.71 20.26Q0.63 19.58 0.78 18.99Q0.88 18.80 0.88 18.51Q0.88 18.21 0.78 17.92Q0.34 17.72 0.22 17.82Q0.10 17.92 0 17.92Q0.20 17.53 0.27 17.48Q0.34 17.43 0.49 17.43Q0.29 17.19 0.49 17.02Q0.68 16.85 0.78 16.55Q0.59 16.11 0.68 16.09Q0.78 16.06 0.83 15.97Q1.03 15.28 0.88 14.06Q0.73 12.84 0.49 11.87Q0.73 11.82 1.10 11.79Q1.46 11.77 1.51 11.96Q1.61 11.82 2.05 11.72Q2.39 11.82 2.78 11.82Q3.17 11.82 3.52 11.79Q3.86 11.77 4.15 11.67Q4.44 11.57 4.64 11.33Q4.88 11.57 5.27 11.67Q5.66 11.77 6.13 11.74Q6.59 11.72 7.03 11.62Q7.47 11.52 7.76 11.43Q9.13 11.57 9.96 11.57Q10.79 11.57 11.67 11.67Q12.06 11.47 12.43 11.50Q12.79 11.52 13.13 11.62Q13.48 11.72 13.82 11.77Q14.16 11.82 14.50 11.62Q14.94 11.67 15.26 11.72Q15.58 11.77 15.77 11.67Q16.26 11.67 16.65 11.67Q17.04 11.67 17.46 11.72Q17.87 11.77 18.24 11.69Q18.60 11.62 18.80 11.33Q19.38 11.67 19.87 11.57Q20.36 11.47 20.85 11.38Q21.14 11.33 21.44 11.40Q21.73 11.47 21.97 11.43Q22.36 11.38 22.66 11.18Q22.95 10.99 23.34 11.38Q23.88 11.33 24.41 11.38Q24.95 11.43 25.42 11.45Q25.88 11.47 26.32 11.40Q26.76 11.33 27.05 11.08Q27.44 11.18 27.51 11.21Q27.59 11.23 27.64 11.43Q28.61 11.08 29.13 10.99Q29.64 10.89 30.18 10.64Q30.42 10.74 30.69 10.86Q30.96 10.99 31.05 11.23Q31.59 11.13 32.28 11.25Q32.96 11.38 33.50 11.43Q33.69 11.08 33.98 11.08Q34.28 11.08 34.52 11.30Q34.77 11.52 34.84 11.84Q34.91 12.16 34.62 12.50Q34.81 12.74 34.67 12.94Q34.52 13.13 34.72 13.38Q34.96 13.23 35.23 13.23Q35.50 13.23 35.55 13.43Q35.60 13.67 35.42 13.62Q35.25 13.57 35.11 13.77Q34.96 13.92 34.94 14.18Q34.91 14.45 34.67 14.60Q34.67 14.84 34.94 14.79Q35.21 14.75 35.25 14.99Q35.60 15.04 35.57 15.11Q35.55 15.19 35.64 15.43M2.98 21.29Q2.83 21.44 2.69 21.48Q2.54 21.53 2.59 21.73Q2.44 21.53 2.56 21.39Q2.69 21.24 2.98 21.29M33.98 12.16Q33.74 12.06 33.62 12.06Q33.50 12.06 33.30 11.91Q33.20 12.11 32.81 11.96Q32.42 11.82 32.28 12.06Q32.03 12.70 31.64 12.99Q31.25 13.28 30.71 13.38Q30.32 13.53 30.08 13.67Q29.88 13.92 29.76 14.09Q29.64 14.26 29.39 14.40Q29.64 14.65 30.00 14.58Q30.37 14.50 30.57 14.60Q30.81 14.11 31.03 13.94Q31.25 13.77 31.64 13.82Q31.74 13.23 32.06 13.13Q32.37 13.04 32.62 13.18Q32.67 12.94 33.03 12.94Q33.40 12.94 33.25 12.70Q33.64 12.55 33.84 12.50Q34.03 12.45 33.98 12.16M32.57 13.62Q32.42 13.72 32.25 13.65Q32.08 13.57 31.88 13.67Q32.28 13.96 32.45 13.89Q32.62 13.82 32.57 13.62M33.74 16.31Q33.64 16.06 33.54 16.04Q33.45 16.02 33.33 16.04Q33.20 16.06 33.03 16.11Q32.86 16.16 32.67 16.11Q32.81 16.36 33.15 16.31Q33.50 16.26 33.74 16.31M31.15 12.26Q30.71 11.87 30.40 11.99Q30.08 12.11 29.81 12.28Q29.54 12.45 29.27 12.65Q29.00 12.84 28.71 12.84Q28.52 13.18 28.13 13.33Q28.37 13.67 28.52 13.60Q28.66 13.53 28.86 13.62Q29.35 13.04 29.64 13.09Q30.03 12.74 30.32 12.50Q30.62 12.26 31.15 12.26M31.74 14.16Q31.59 14.01 31.45 14.16Q31.30 14.31 31.15 14.21Q30.71 14.60 30.69 14.70Q30.66 14.79 30.57 14.89Q30.42 14.79 30.30 14.82Q30.18 14.84 30.03 14.89Q30.03 15.14 29.93 15.19Q29.83 15.23 29.88 15.48Q30.62 15.28 30.66 14.89Q30.91 14.89 31.03 14.65Q31.15 14.40 31.40 14.70Q31.35 14.45 31.52 14.40Q31.69 14.36 31.74 14.16M34.23 17.43Q34.28 17.09 34.06 16.99Q33.84 16.89 33.59 16.80Q33.54 17.29 33.40 17.26Q33.25 17.24 33.15 17.33Q32.81 17.58 32.47 17.65Q32.13 17.72 32.03 17.38Q32.18 17.38 32.32 17.36Q32.47 17.33 32.57 17.24Q33.11 17.04 33.11 17.14Q33.11 17.24 33.25 17.19Q33.35 16.89 33.11 16.97Q32.86 17.04 32.81 16.85Q32.57 16.80 32.40 16.77Q32.23 16.75 32.03 16.85Q32.13 17.04 31.93 17.14Q31.74 17.24 31.74 17.48Q32.03 17.92 32.25 17.85Q32.47 17.77 32.67 17.87Q32.76 18.46 32.84 18.43Q32.91 18.41 32.96 18.31Q33.01 18.21 33.08 18.07Q33.15 17.92 33.25 17.92Q33.45 17.92 33.59 17.94Q33.74 17.97 33.84 17.97Q33.98 17.58 34.06 17.53Q34.13 17.48 34.23 17.43M28.86 12.06Q28.22 12.11 27.69 12.13Q27.15 12.16 27.00 12.74Q27.25 12.79 27.32 12.94Q27.39 13.09 27.64 13.18Q27.88 12.70 28.30 12.62Q28.71 12.55 28.86 12.06M33.69 18.36Q33.11 18.60 32.86 18.85Q32.62 19.09 32.28 19.34Q32.37 19.87 32.62 19.97Q33.40 19.48 33.69 18.36M34.23 19.14Q34.13 19.58 33.50 19.82Q33.50 20.31 33.28 20.41Q33.06 20.51 32.81 20.65Q33.01 20.85 32.96 21.02Q32.91 21.19 32.91 21.34Q33.20 21.29 33.37 21.22Q33.54 21.14 33.79 21.24Q34.42 20.61 34.40 20.02Q34.38 19.43 34.23 19.14M34.03 21.83Q33.40 21.97 33.11 22.41Q32.81 22.85 33.15 23.54Q33.50 23.78 33.79 23.39Q33.64 23.05 33.96 22.63Q34.28 22.22 34.03 21.83M34.13 24.22Q33.74 24.32 33.84 24.49Q33.94 24.66 33.84 24.76Q33.50 24.85 33.62 25.24Q33.74 25.63 33.98 25.83Q34.13 25.54 34.18 25.07Q34.23 24.61 34.13 24.22M19.19 12.94Q18.80 12.84 18.46 12.96Q18.12 13.09 17.87 13.13Q17.97 12.84 18.21 12.84Q18.46 12.84 18.70 12.74L17.97 12.30Q17.43 12.99 16.60 13.35Q15.77 13.72 15.23 14.36Q15.28 14.65 15.09 14.82Q14.89 14.99 14.77 15.21Q14.65 15.43 14.72 15.63Q14.79 15.82 15.09 15.92Q15.67 15.38 15.92 15.09Q16.16 14.79 16.55 14.60Q16.65 14.94 16.70 14.62Q16.75 14.31 17.14 14.40Q17.38 14.11 17.50 14.04Q17.63 13.96 17.72 13.87Q17.82 13.77 17.92 13.72Q18.02 13.67 18.16 13.72Q18.26 13.43 18.58 13.38Q18.90 13.33 18.95 12.94L19.19 12.94M17.04 12.30Q16.41 12.45 15.89 12.35Q15.38 12.26 14.79 12.45Q14.55 12.74 14.62 13.11Q14.70 13.48 14.65 13.96Q15.38 13.82 15.99 13.35Q16.60 12.89 17.04 12.30M21.24 12.35Q21.00 12.21 20.80 12.23Q20.61 12.26 20.31 12.21Q20.12 12.55 19.95 12.89Q19.78 13.23 19.24 13.28Q19.09 13.53 18.90 13.77Q18.70 14.01 18.16 13.92Q18.02 14.31 17.77 14.28Q17.53 14.26 17.29 14.36Q16.80 14.84 16.33 15.33Q15.87 15.82 15.14 16.11Q15.09 16.36 15.23 16.38Q15.38 16.41 15.38 16.65Q15.23 16.85 15.06 16.97Q14.89 17.09 14.79 17.33Q15.23 17.14 15.63 16.75Q15.97 17.14 15.77 17.26Q15.58 17.38 15.48 17.68Q15.14 17.58 15.04 17.70Q14.94 17.82 14.75 17.87Q15.04 18.21 14.99 18.24Q14.94 18.26 15.04 18.36Q15.19 18.36 15.33 18.31Q15.48 18.26 15.63 18.36Q15.48 18.46 15.28 18.60Q15.09 18.75 14.97 18.95Q14.84 19.14 14.84 19.34Q14.84 19.53 15.09 19.68Q15.19 19.58 15.23 19.46Q15.28 19.34 15.48 19.24Q15.87 18.99 15.92 18.95Q15.97 18.90 16.06 18.90Q16.46 19.38 16.50 19.29Q16.80 18.99 17.09 18.99Q17.14 18.75 16.94 18.73Q16.75 18.70 16.65 18.60Q16.55 19.09 16.21 19.14Q15.97 18.90 16.09 18.73Q16.21 18.55 16.55 18.60Q16.36 18.51 16.41 18.24Q16.46 17.97 16.80 18.02Q16.94 18.26 17.02 18.16Q17.09 18.07 17.33 18.16Q17.72 17.97 17.82 17.72Q18.36 17.29 18.31 16.85Q18.46 16.85 18.55 16.75Q18.65 16.65 18.85 16.75Q18.26 16.75 18.24 16.65Q18.21 16.55 18.16 16.46Q18.46 16.36 18.63 16.16Q18.80 15.97 19.19 15.92Q19.48 15.72 19.51 15.65Q19.53 15.58 19.63 15.48Q20.07 15.04 20.46 14.92Q20.85 14.79 21.19 14.60Q21.29 14.01 21.22 13.45Q21.14 12.89 21.24 12.35M18.99 17.53Q18.70 17.43 18.58 17.48Q18.46 17.53 18.36 17.63Q18.46 17.87 18.70 17.85Q18.95 17.82 18.99 17.53M21.73 22.46Q21.58 22.17 21.66 21.97Q21.73 21.78 21.73 21.39Q21.14 21.58 21.17 21.48Q21.19 21.39 21.09 21.39Q20.61 21.09 20.51 21.17Q20.41 21.24 20.31 21.14Q20.75 21.04 20.85 21.14Q20.95 21.24 21.09 21.29Q21.09 21.00 21.19 20.87Q21.29 20.75 21.19 20.51Q21.39 20.36 21.51 20.34Q21.63 20.31 21.73 20.26Q21.63 20.02 21.73 19.60Q21.83 19.19 21.44 19.19Q20.90 19.68 20.85 19.53Q20.80 19.38 20.65 19.48Q20.70 19.87 20.51 20.02Q20.31 20.17 20.12 20.12Q19.87 19.73 20.02 19.73Q20.17 19.73 20.21 19.53Q20.70 19.34 20.90 19.31Q21.09 19.29 21.24 19.14Q20.90 19.09 20.65 19.12Q20.41 19.14 20.07 19.24Q19.97 18.80 20.02 18.70Q20.07 18.60 20.26 18.70Q20.46 19.14 20.58 19.02Q20.70 18.90 20.85 18.99Q21.04 18.55 20.95 18.51Q20.85 18.46 20.85 18.31Q21.09 18.21 21.26 18.21Q21.44 18.21 21.73 18.16Q21.78 17.77 21.44 17.53Q21.14 17.92 20.85 17.82Q20.75 18.02 20.75 18.09Q20.75 18.16 20.61 18.31Q20.51 17.97 20.80 17.72Q21.09 17.48 21.14 17.19Q21.19 16.99 21.00 16.94Q20.80 16.89 20.56 17.04Q20.51 16.80 20.65 16.77Q20.80 16.75 20.95 16.75Q21.09 16.75 21.24 16.75Q21.39 16.75 21.44 16.65Q21.14 16.55 21.29 16.26Q21.44 15.97 21.24 15.77Q20.85 15.87 20.65 16.14Q20.46 16.41 19.97 16.36Q19.97 16.60 19.82 16.72Q19.68 16.85 19.51 16.92Q19.34 16.99 19.19 17.07Q19.04 17.14 18.99 17.33Q19.43 17.38 19.56 17.48Q19.68 17.58 19.58 17.68Q19.09 17.92 19.07 17.94Q19.04 17.97 18.95 17.87Q18.55 18.02 18.51 18.09Q18.46 18.16 18.36 18.21Q17.92 18.02 17.87 18.16Q17.82 18.31 17.68 18.36Q17.29 18.36 17.19 18.36Q17.09 18.36 17.04 18.41Q17.09 18.70 17.31 18.70Q17.53 18.70 17.63 18.51Q17.68 18.80 17.60 18.87Q17.53 18.95 17.41 18.99Q17.29 19.04 17.16 19.07Q17.04 19.09 16.99 19.24Q16.65 19.48 16.53 19.63Q16.41 19.78 16.06 19.73Q15.43 20.21 15.11 20.48Q14.79 20.75 14.79 21.39Q15.19 21.29 15.65 21.09Q16.11 20.90 16.36 21.14Q16.60 20.70 16.80 20.61L17.48 20.31Q17.58 20.07 17.60 20.00Q17.63 19.92 17.63 19.78Q18.26 19.63 18.46 19.46Q18.65 19.29 18.65 19.19Q18.95 19.04 19.07 18.87Q19.19 18.70 19.53 18.60Q19.68 18.60 19.73 18.77Q19.78 18.95 19.82 19.19Q19.68 19.24 19.48 19.24Q19.29 19.24 19.24 19.43Q18.99 19.97 18.80 20.02Q18.60 20.07 18.55 20.26Q18.46 20.02 18.16 20.14Q17.87 20.26 17.77 20.41Q17.43 20.80 17.33 20.83Q17.24 20.85 17.19 20.95Q17.33 21.00 17.46 20.83Q17.58 20.65 17.72 20.85Q16.99 21.34 16.31 21.80Q15.63 22.27 14.84 22.71Q14.84 23.14 14.94 23.32Q15.04 23.49 15.19 23.68Q15.28 23.39 15.43 23.39Q15.58 23.39 15.67 23.44Q15.77 23.24 15.94 23.00Q16.11 22.75 16.31 22.51Q16.85 22.22 16.87 22.29Q16.89 22.36 16.99 22.36Q17.24 22.07 17.33 22.05Q17.43 22.02 17.58 22.17Q17.33 21.78 17.24 21.68Q17.43 21.63 17.53 21.53Q17.63 21.44 17.72 21.39Q17.87 21.19 17.90 21.04Q17.92 20.90 18.12 20.85Q18.36 21.04 18.75 21.19Q18.75 20.80 18.92 20.78Q19.09 20.75 19.19 20.85Q19.04 20.61 19.17 20.48Q19.29 20.36 19.24 20.12Q19.38 20.51 19.43 20.78Q19.48 21.04 19.68 20.85Q19.68 21.68 19.24 21.90Q18.80 22.12 18.46 22.22Q18.51 22.31 18.31 22.44Q18.12 22.56 17.87 22.46Q17.77 22.75 17.63 22.95Q17.48 23.14 17.14 23.14Q17.04 23.39 16.82 23.46Q16.60 23.54 16.46 23.73Q16.11 23.88 15.84 24.07Q15.58 24.27 15.36 24.49Q15.14 24.71 15.06 24.95Q14.99 25.20 15.28 25.49Q15.33 25.15 15.41 25.05Q15.48 24.95 15.63 24.85Q16.11 25.29 16.31 25Q16.41 24.76 16.50 24.66Q16.60 24.56 16.85 24.76Q17.58 24.76 17.82 24.54Q18.07 24.32 17.87 24.12Q17.72 23.78 17.68 23.68Q17.63 23.58 17.68 23.49Q18.07 23.29 18.14 23.32Q18.21 23.34 18.51 23.39Q18.90 23.34 19.24 23.41Q19.58 23.49 19.82 23.29Q19.92 22.71 20.36 22.68Q20.80 22.66 21.24 22.41L21.73 22.46M19.53 21.48Q19.04 21.48 18.99 21.48Q18.55 21.73 18.51 21.66Q18.46 21.58 18.31 21.63Q18.60 21.88 18.87 21.80Q19.14 21.73 19.53 21.48M15.97 19.73Q15.72 19.87 15.50 19.78Q15.28 19.68 15.23 19.92Q15.77 19.92 15.97 19.73M21.53 24.41Q21.63 24.17 21.53 23.95Q21.44 23.73 21.53 23.49Q21.29 23.44 21.22 23.41Q21.14 23.39 20.95 23.49Q20.80 23.83 20.68 24.00Q20.56 24.17 20.31 24.27Q19.87 24.37 19.82 24.39Q19.78 24.41 19.68 24.46Q19.38 25.05 19.12 25.17Q18.85 25.29 18.75 25.63Q19.04 25.54 19.26 25.42Q19.48 25.29 19.78 25.44Q19.78 25.10 20.04 25.17Q20.31 25.24 20.36 24.95Q20.56 24.80 20.83 24.56Q21.09 24.32 21.53 24.41M19.63 23.78Q19.38 23.88 19.31 23.78Q19.24 23.68 19.09 23.63Q19.09 23.73 19.09 23.90Q19.09 24.07 18.95 24.17Q18.55 24.32 18.43 24.32Q18.31 24.32 18.31 24.41Q18.55 24.46 18.82 24.44Q19.09 24.41 19.19 24.66Q19.14 23.97 19.24 24.00Q19.34 24.02 19.43 24.02L19.63 23.78M17.53 22.61Q17.33 22.46 17.14 22.49Q16.94 22.51 16.94 22.71Q17.14 22.71 17.26 22.73Q17.38 22.75 17.53 22.61M15.67 21.68Q15.53 21.88 15.31 21.73Q15.09 21.58 14.99 21.73Q15.43 22.02 15.48 21.97Q15.53 21.92 15.63 21.92L15.67 21.68M18.99 25.78Q18.51 25.88 18.29 25.88Q18.07 25.88 18.02 26.03Q18.55 26.17 18.58 26.05Q18.60 25.93 18.70 25.88L18.99 25.78M19.24 26.22Q18.80 26.42 18.75 26.39Q18.70 26.37 18.60 26.37Q18.60 26.86 18.87 26.66Q19.14 26.46 19.24 26.22M18.65 25.15Q18.70 24.66 18.63 24.61Q18.55 24.56 18.41 24.58Q18.26 24.61 18.12 24.68Q17.97 24.76 17.97 24.85Q17.72 24.76 17.55 24.98Q17.38 25.20 17.09 25.24Q16.75 25.68 16.63 25.68Q16.50 25.68 16.46 25.78Q16.06 26.22 15.60 26.49Q15.14 26.76 15.23 27.39Q15.48 27.39 15.55 27.29Q15.63 27.20 15.72 27.05Q15.92 27.29 15.94 27.08Q15.97 26.86 16.26 26.90Q16.55 26.66 16.55 26.56Q16.55 26.46 16.65 26.37Q16.94 26.17 17.02 26.07Q17.09 25.98 17.19 25.93Q17.33 26.07 17.41 26.07Q17.48 26.07 17.72 26.22Q17.97 25.83 17.97 25.73Q17.97 25.63 18.12 25.68Q18.16 25.63 17.94 25.66Q17.72 25.68 17.58 25.78Q17.58 25.39 17.85 25.29Q18.12 25.20 18.31 25L18.65 25.15M5.42 14.60Q5.13 14.26 5.03 14.31Q4.93 14.36 4.74 14.36Q5.08 14.70 5.15 14.53Q5.22 14.36 5.42 14.60M5.47 14.89Q5.37 14.75 5.08 14.72Q4.79 14.70 4.79 14.94Q5.03 14.89 5.47 14.89M6.25 12.99Q5.71 12.79 5.62 12.70Q5.18 12.84 4.91 13.09Q4.64 13.33 4.25 13.38Q4.35 13.62 4.08 13.70Q3.81 13.77 3.71 13.72Q3.61 14.01 3.54 14.06Q3.47 14.11 3.22 14.06Q3.13 14.26 3.00 14.43Q2.88 14.60 2.59 14.70Q2.29 14.70 2.05 14.75Q1.95 14.50 1.78 14.60Q1.61 14.70 1.61 14.36Q1.86 14.40 2.03 14.36Q2.20 14.31 2.39 14.26Q2.20 13.87 2.49 13.67Q2.78 13.48 3.08 13.23Q2.93 13.13 2.78 13.23Q2.64 13.33 2.54 13.23Q2.54 12.99 2.73 12.96Q2.93 12.94 2.93 12.70Q2.59 12.65 2.15 12.72Q1.71 12.79 1.46 12.89Q1.42 13.13 1.49 13.26Q1.56 13.38 1.66 13.57Q1.51 13.72 1.44 14.01Q1.37 14.31 1.37 14.62Q1.37 14.94 1.49 15.14Q1.61 15.33 1.90 15.23Q1.66 15.63 1.78 15.65Q1.90 15.67 1.95 15.77Q1.66 15.92 1.66 16.14Q1.66 16.36 1.76 16.36Q1.86 16.11 2.03 16.24Q2.20 16.36 2.39 16.16Q2.88 15.92 3.25 15.97Q3.61 16.02 3.76 15.92Q3.66 15.92 3.54 15.89Q3.42 15.87 3.22 15.87Q3.66 15.23 3.42 15.19Q3.66 14.89 3.76 14.75Q3.86 14.60 3.96 14.48Q4.05 14.36 4.15 14.26Q4.25 14.16 4.25 14.06Q4.79 14.01 4.98 13.92Q5.18 13.82 5.47 13.92Q5.52 13.77 5.42 13.62Q5.32 13.48 5.47 13.38Q5.91 13.04 6.03 13.04Q6.15 13.04 6.25 12.99M18.26 27.49Q18.12 27.34 18.24 27.25Q18.36 27.15 18.21 26.90Q17.92 26.95 17.75 27.15Q17.58 27.34 17.33 27.44Q17.58 26.95 17.48 26.93Q17.38 26.90 17.53 26.81Q17.87 26.90 17.97 26.78Q18.07 26.66 18.21 26.61Q18.07 26.51 17.87 26.54Q17.68 26.56 17.48 26.51Q16.99 26.86 16.87 27.08Q16.75 27.29 16.60 27.49Q16.99 27.64 17.24 27.39Q17.24 27.73 17.09 27.76Q16.94 27.78 16.75 27.83Q16.50 28.22 16.14 28.49Q15.77 28.76 15.38 29.00Q15.28 29.39 15.33 29.76Q15.38 30.13 15.28 30.42Q15.67 30.03 16.04 29.76Q16.41 29.49 16.65 28.96Q17.04 28.66 17.07 28.64Q17.09 28.61 17.04 28.47Q17.24 28.42 17.38 28.27Q17.53 28.13 17.77 28.13Q17.97 27.78 18.04 27.69Q18.12 27.59 18.26 27.49M21.53 25.44Q21.29 25.44 21.19 25.59Q21.09 25.73 20.80 25.73Q20.80 26.12 20.36 26.17Q20.21 26.51 19.95 26.76Q19.68 27.00 19.38 27.22Q19.09 27.44 18.85 27.71Q18.60 27.98 18.46 28.37Q17.68 29.00 17.04 29.52Q16.41 30.03 15.87 30.71Q15.67 31.25 15.75 31.25Q15.82 31.25 15.82 31.35Q15.48 31.54 15.28 31.91Q15.09 32.28 15.19 32.91Q15.63 33.01 15.65 33.13Q15.67 33.25 15.53 33.35Q15.23 33.84 15.19 34.30Q15.14 34.77 15.19 35.25Q15.58 35.30 15.77 35.40Q15.97 35.50 16.21 35.60Q16.16 35.79 15.97 35.79Q15.77 35.79 15.67 35.89Q15.63 36.04 15.53 36.18Q15.43 36.33 15.38 36.47Q15.33 36.62 15.36 36.74Q15.38 36.87 15.63 36.96Q15.53 36.57 15.75 36.55Q15.97 36.52 16.16 36.43Q16.36 36.08 16.53 35.84Q16.70 35.60 17.04 35.69Q17.09 35.16 17.16 35.11Q17.24 35.06 17.19 34.91Q17.53 34.42 17.70 34.45Q17.87 34.47 17.97 34.23Q17.97 34.08 18.26 33.89Q18.55 33.69 18.95 33.79Q18.70 33.30 18.85 33.15Q18.99 33.01 19.14 32.91Q19.53 33.01 19.63 33.03Q19.73 33.06 19.78 32.96Q19.73 32.81 19.48 32.86Q19.24 32.91 19.14 32.81Q19.34 32.57 19.56 32.52Q19.78 32.47 20.02 32.32Q20.26 32.37 20.36 32.28Q20.46 32.18 20.61 32.08Q20.90 31.74 20.97 31.59Q21.04 31.45 21.29 31.45Q21.29 31.05 21.31 30.69Q21.34 30.32 21.09 30.22Q21.34 29.79 21.46 29.37Q21.58 28.96 21.48 28.37Q21.00 28.61 20.63 28.93Q20.26 29.25 19.87 29.54Q19.92 29.39 19.85 29.30Q19.78 29.20 19.73 29.00Q20.02 28.96 20.04 28.76Q20.07 28.56 20.31 28.37Q20.61 27.88 20.53 27.83Q20.46 27.78 20.51 27.69Q20.80 27.54 20.85 27.61Q20.90 27.69 21.04 27.69Q21.19 27.15 21.51 26.64Q21.83 26.12 21.53 25.44M21.14 32.76Q20.61 33.01 20.24 33.35Q19.87 33.69 19.53 34.08Q19.68 34.18 19.82 34.16Q19.97 34.13 20.12 34.06Q20.26 33.98 20.41 33.94Q20.56 33.89 20.75 33.94Q20.80 33.74 20.87 33.62Q20.95 33.50 20.85 33.30Q21.00 33.20 21.09 33.11Q21.19 33.01 21.14 32.76M5.42 16.26Q5.22 16.26 5.05 16.28Q4.88 16.31 4.88 16.46Q4.39 16.99 4.30 17.16Q4.20 17.33 4.05 17.48Q3.71 17.43 3.61 17.60Q3.52 17.77 3.22 17.72Q2.88 18.31 2.44 18.75Q2.49 18.95 2.37 19.14Q2.25 19.34 2.00 19.24Q2.10 19.48 2.27 19.41Q2.44 19.34 2.54 19.53Q2.59 19.24 2.78 19.04Q2.98 18.85 3.32 19.04Q3.52 18.70 3.96 18.75Q4.64 18.07 4.91 17.48Q5.18 16.89 5.42 16.26M19.19 34.72Q18.80 34.52 18.63 34.64Q18.46 34.77 18.16 34.86Q18.60 35.01 18.85 34.99Q19.09 34.96 19.19 34.72M2.54 18.21Q2.25 17.92 2.00 18.09Q1.76 18.26 1.51 18.36Q1.66 18.46 1.54 18.63Q1.42 18.80 1.56 18.90Q1.81 18.75 1.98 18.51Q2.15 18.26 2.54 18.21M19.24 35.06L18.85 35.45Q17.97 35.89 17.70 36.30Q17.43 36.72 16.94 36.72Q16.65 37.11 16.21 37.52Q15.77 37.94 15.38 38.38Q15.53 38.67 15.38 38.92Q15.82 38.48 16.09 38.26Q16.36 38.04 16.75 37.94Q17.43 37.30 17.68 36.87Q17.92 36.43 18.36 36.43Q18.31 36.18 18.41 36.01Q18.51 35.84 18.68 35.72Q18.85 35.60 19.02 35.45Q19.19 35.30 19.24 35.06M21.19 36.52Q20.95 36.28 20.75 36.43Q20.56 36.57 20.26 36.67Q20.26 36.87 20.12 36.99Q19.97 37.11 19.87 37.06Q19.87 36.72 19.70 36.79Q19.53 36.87 19.34 36.87Q19.73 37.16 19.73 37.30Q19.73 37.45 19.58 37.45Q19.43 37.35 19.31 37.23Q19.19 37.11 19.04 37.26Q19.04 36.82 19.19 36.82Q19.34 36.82 19.53 36.77Q19.68 36.38 20.19 36.25Q20.70 36.13 21.09 36.18Q20.90 35.84 20.95 35.74Q21.00 35.64 21.14 35.60Q21.19 35.35 21.12 35.21Q21.04 35.06 21.14 34.91Q20.80 34.81 20.53 34.86Q20.26 34.91 20.17 35.16Q19.63 35.45 19.70 35.55Q19.78 35.64 19.78 35.79Q19.43 35.89 19.41 35.99Q19.38 36.08 19.29 36.18Q19.04 36.04 18.97 36.25Q18.90 36.47 18.65 36.43Q18.55 36.96 18.43 36.94Q18.31 36.91 18.21 37.01Q18.12 37.45 17.94 37.50Q17.77 37.55 17.77 37.79Q18.02 37.65 18.24 37.70Q18.46 37.74 18.70 37.84Q18.80 37.60 19.02 37.48Q19.24 37.35 19.34 37.60Q18.99 37.70 18.77 37.94Q18.55 38.18 18.12 38.23Q17.97 38.62 17.60 38.67Q17.24 38.72 17.09 39.16Q16.80 39.55 16.48 39.62Q16.16 39.70 16.02 39.94Q15.63 40.23 15.48 40.43Q15.33 40.63 15.31 40.89Q15.28 41.16 15.31 41.48Q15.33 41.80 15.23 42.09Q15.63 41.80 15.80 41.63Q15.97 41.46 16.14 41.28Q16.31 41.11 16.50 41.02Q16.70 40.92 16.99 40.97Q16.99 40.87 17.02 40.70Q17.04 40.53 17.14 40.43Q17.72 40.23 17.77 40.33Q17.82 40.43 17.97 40.53Q18.07 40.28 17.85 40.21Q17.63 40.14 17.53 40.04Q17.68 39.99 17.75 39.87Q17.82 39.75 18.07 39.75Q18.21 39.40 18.29 39.33Q18.36 39.26 18.51 39.31Q18.51 38.92 18.85 38.89Q19.19 38.87 19.29 38.67Q19.82 38.48 20.04 38.21Q20.26 37.94 20.65 37.84Q20.65 37.26 20.87 37.06Q21.09 36.87 21.19 36.52M21.44 45.85Q21.19 45.61 21.26 45.19Q21.34 44.78 21.09 44.43Q21.19 44.09 21.26 43.68Q21.34 43.26 21.09 42.97Q20.61 43.46 20.26 43.36Q20.21 43.51 20.17 43.65Q20.12 43.80 20.07 43.95Q20.51 43.85 20.73 44.02Q20.95 44.19 20.95 44.41Q20.95 44.63 20.78 44.85Q20.61 45.07 20.26 45.07Q20.26 45.31 20.21 45.41Q20.17 45.51 20.12 45.61Q20.36 45.80 20.58 45.78Q20.80 45.75 21.00 46.00L21.44 45.85M17.14 41.21Q16.80 41.36 16.65 41.33Q16.50 41.31 16.55 41.46Q17.09 41.41 17.09 41.33Q17.09 41.26 17.14 41.21M22.22 47.75Q22.41 47.51 22.34 47.24Q22.27 46.97 21.88 47.02Q21.92 47.27 21.85 47.34Q21.78 47.41 21.78 47.61L22.22 47.75M21.29 40.72Q21.19 40.63 21.12 40.50Q21.04 40.38 20.85 40.38Q20.75 40.63 20.51 40.63Q20.26 40.63 20.17 40.72Q20.02 40.28 20.41 40.09Q20.80 39.89 21.04 39.40Q20.85 39.40 20.70 39.43Q20.56 39.45 20.46 39.45Q20.56 39.26 21.00 39.31Q21.04 39.06 20.95 38.89Q20.85 38.72 21.09 38.53Q20.51 38.33 20.48 38.23Q20.46 38.13 20.31 38.23Q20.17 38.53 19.90 38.72Q19.63 38.92 19.34 39.16Q19.04 39.40 18.65 39.40Q18.21 39.99 18.12 40.23Q18.46 40.38 18.63 40.23Q18.80 40.09 19.04 40.09Q18.90 40.53 18.82 40.55Q18.75 40.58 18.80 40.72Q18.41 40.87 18.41 40.97Q18.41 41.06 18.31 41.16Q18.02 40.87 17.90 40.94Q17.77 41.02 17.77 41.26Q18.02 41.46 17.80 41.50Q17.58 41.55 17.36 41.60Q17.14 41.65 17.02 41.77Q16.89 41.89 16.99 42.24Q16.50 42.48 16.28 42.68Q16.06 42.87 15.84 43.09Q15.63 43.31 15.45 43.58Q15.28 43.85 15.28 44.24Q15.38 44.04 15.53 44.14Q15.67 44.24 15.82 44.19Q16.31 44.34 16.16 44.46Q16.02 44.58 16.16 44.68Q16.16 45.17 16.11 45.31Q15.77 45.41 15.72 45.46Q15.67 45.51 15.58 45.51Q15.23 46.24 14.65 46.63Q14.06 47.02 13.57 47.56Q13.87 47.71 14.14 47.36Q14.40 47.02 14.84 47.02Q15.38 46.34 16.04 45.90Q16.70 45.46 17.33 44.92Q17.82 44.73 18.14 44.53Q18.46 44.34 18.60 44.34Q19.04 43.85 19.17 43.97Q19.29 44.09 19.29 43.90Q19.53 43.26 19.82 43.04Q20.12 42.82 20.46 42.92Q20.46 42.68 20.24 42.70Q20.02 42.72 19.97 42.58Q20.46 42.68 20.56 42.53Q20.85 42.24 20.78 42.14Q20.70 42.04 20.61 41.99Q21.00 41.85 20.95 41.80Q20.90 41.75 20.95 41.55Q21.19 41.65 21.19 41.26Q21.19 40.87 21.29 40.72M20.02 45.61Q19.78 45.46 19.63 45.31Q19.48 45.17 19.34 45.41Q19.73 45.65 19.70 45.80Q19.68 45.95 19.58 45.95Q19.87 46.09 20.02 45.61M21.63 46.53Q21.48 46.44 21.44 46.31Q21.39 46.19 21.19 46.14Q20.51 46.04 20.65 46.29Q20.21 46.44 20.17 46.39Q20.12 46.34 20.02 46.34Q19.38 46.68 19.09 47.00Q18.80 47.31 18.31 47.51Q18.46 47.75 18.77 47.80Q19.09 47.85 19.46 47.80Q19.82 47.75 20.17 47.71Q20.51 47.66 20.75 47.71Q21.00 47.36 21.12 47.07Q21.24 46.78 21.63 46.53M20.26 44.53Q20.07 44.19 19.97 44.17Q19.87 44.14 19.78 44.24Q19.58 44.97 19.19 45.00Q18.80 45.02 18.55 45.26Q18.51 45.41 18.19 45.63Q17.87 45.85 17.63 45.80Q17.19 46.14 17.26 46.24Q17.33 46.34 17.24 46.34Q16.89 46.29 16.72 46.51Q16.55 46.73 16.31 46.73Q16.11 46.88 16.04 47.05Q15.97 47.22 15.67 47.07Q15.77 47.31 15.77 47.46Q15.77 47.61 15.67 47.71Q15.87 47.85 16.06 47.75Q16.26 47.66 16.43 47.53Q16.60 47.41 16.80 47.31Q16.99 47.22 17.29 47.31Q17.43 47.22 17.65 47.09Q17.87 46.97 17.63 46.83Q17.87 46.53 18.07 46.48Q18.31 46.44 18.29 46.24Q18.26 46.04 18.36 46.00Q18.90 46.04 18.87 45.97Q18.85 45.90 19.09 45.95Q19.14 45.31 19.41 45.24Q19.68 45.17 19.82 44.97Q20.07 44.97 20.12 44.87Q20.17 44.78 20.26 44.53M15.82 44.97Q15.87 44.87 15.94 44.68Q16.02 44.48 15.82 44.43Q15.72 44.73 15.72 44.85Q15.72 44.97 15.82 44.97M20.85 13.48Q20.75 13.92 20.39 14.11Q20.02 14.31 19.78 14.65Q18.99 14.89 18.82 15.26Q18.65 15.63 18.12 15.63Q17.77 15.97 17.29 16.06Q17.04 16.70 16.75 16.80Q16.46 16.89 16.26 16.99Q16.55 16.46 16.48 16.43Q16.41 16.41 16.46 16.31Q16.70 16.31 16.94 15.97Q16.75 15.48 17.04 15.60Q17.33 15.72 17.29 15.38Q17.48 15.48 17.53 15.50Q17.58 15.53 17.77 15.63Q17.97 15.23 17.99 15.09Q18.02 14.94 18.26 14.99Q18.51 14.65 18.48 14.60Q18.46 14.55 18.55 14.31Q18.75 14.36 18.87 14.43Q18.99 14.50 19.19 14.40Q19.14 13.92 19.46 13.84Q19.78 13.77 20.02 13.96Q19.92 13.77 19.97 13.70Q20.02 13.62 19.97 13.43Q20.21 13.48 20.46 13.40Q20.70 13.33 20.85 13.48M18.16 16.75Q18.07 16.85 17.90 16.82Q17.72 16.80 17.63 16.89Q17.97 16.55 18.02 16.63Q18.07 16.70 18.16 16.75M16.55 15.67Q16.31 15.77 16.31 15.94Q16.31 16.11 16.31 16.26Q16.16 15.97 16.19 15.92Q16.21 15.87 16.16 15.63L16.55 15.67M18.36 18.41Q18.12 18.36 18.12 18.53Q18.12 18.70 17.87 18.70Q18.36 18.21 18.36 18.41M16.02 16.21Q15.87 16.31 15.75 16.38Q15.63 16.46 15.48 16.46Q15.63 16.06 15.75 16.11Q15.87 16.16 16.02 16.21M20.46 22.27Q20.31 22.36 20.07 22.36Q19.82 22.36 19.68 22.27Q20.12 22.17 20.14 22.07Q20.17 21.97 20.26 21.92L20.46 22.27M18.80 22.61Q18.90 22.85 18.68 22.80Q18.46 22.75 18.26 22.80Q18.46 22.75 18.53 22.66Q18.60 22.56 18.80 22.61M20.56 30.86Q19.92 31.05 19.82 31.40Q19.97 31.10 20.14 30.93Q20.31 30.76 20.56 30.86M19.73 29.49Q19.29 29.59 19.24 29.88Q19.19 30.18 19.09 30.27Q18.80 30.47 18.48 30.64Q18.16 30.81 17.77 30.91Q17.72 30.71 18.02 30.59Q18.31 30.47 18.55 30.42Q18.65 30.32 18.75 30.15Q18.85 29.98 19.09 30.13Q18.85 29.88 19.09 29.59Q19.34 29.30 19.73 29.49M18.60 32.23Q18.31 32.62 18.26 32.67Q18.21 32.71 18.12 32.71Q18.26 32.47 18.36 32.42Q18.46 32.37 18.46 32.23L18.60 32.23M17.87 33.35Q17.48 33.45 17.14 33.50Q17.43 33.50 17.58 33.33Q17.72 33.15 17.87 33.35M17.09 33.79Q17.24 33.98 16.94 34.06Q16.65 34.13 16.55 33.98Q16.89 33.94 17.09 33.79M20.26 39.84Q19.78 39.94 19.65 39.92Q19.53 39.89 19.53 39.75Q19.78 39.84 19.90 39.87Q20.02 39.89 20.26 39.84M20.21 41.06Q20.12 41.31 19.87 41.33Q19.63 41.36 19.53 41.50Q19.38 41.41 19.29 41.31Q19.19 41.21 18.95 41.31Q18.99 40.82 19.46 40.89Q19.92 40.97 20.21 41.06M19.82 42.77Q19.73 42.92 19.56 42.97Q19.38 43.02 19.14 43.07Q19.43 42.92 19.48 42.82Q19.53 42.72 19.82 42.77M19.29 41.85Q18.99 42.19 18.75 42.33Q18.51 42.48 18.36 42.72Q18.70 42.63 19.19 42.53Q19.19 42.87 18.92 42.92Q18.65 42.97 18.55 43.21Q18.21 42.92 18.29 42.85Q18.36 42.77 18.26 42.72Q18.02 42.87 17.72 42.82Q17.43 42.77 17.19 43.02Q17.63 42.63 17.94 42.38Q18.26 42.14 18.70 41.85Q18.65 41.36 18.85 41.50Q19.04 41.65 19.29 41.55L19.29 41.85M17.82 43.90Q17.63 43.85 17.58 43.85Q17.53 43.85 17.29 43.90Q16.89 44.09 17.09 44.43Q16.85 44.63 16.77 44.41Q16.70 44.19 16.46 44.34Q16.99 44.09 17.04 43.80Q16.70 43.26 16.80 43.24Q16.89 43.21 17.02 43.21Q17.14 43.21 17.24 43.19Q17.33 43.16 17.33 43.02Q17.63 43.31 17.55 43.36Q17.48 43.41 17.53 43.55L17.82 43.90ZM84.86 11.77Q83.98 12.84 83.03 13.18Q82.08 13.53 81.25 13.96Q80.96 14.36 80.64 14.67Q80.32 14.99 79.88 15.23Q79.93 15.38 79.86 15.55Q79.79 15.72 79.64 15.89Q79.49 16.06 79.37 16.24Q79.25 16.41 79.25 16.55Q78.61 17.04 78.27 17.63Q77.93 18.21 77.88 18.85Q77.34 19.24 77.20 19.97Q77.05 20.70 76.66 21.24Q76.46 21.92 76.22 22.31Q75.98 22.71 75.98 23.29Q75.83 23.39 75.71 23.58Q75.59 23.78 75.73 23.88Q75.49 24.17 75.39 24.49Q75.29 24.80 75.27 25.15Q75.24 25.49 75.15 25.78Q75.05 26.07 74.80 26.32Q74.76 27.15 74.54 27.78Q74.32 28.42 74.10 29.05Q73.88 29.69 73.71 30.35Q73.54 31.01 73.49 31.79Q73.24 32.18 73.12 32.59Q73.00 33.01 72.90 33.40Q72.71 33.54 72.68 33.74Q72.66 33.94 72.61 34.18Q72.51 34.47 72.41 34.79Q72.31 35.11 72.27 35.40Q72.27 35.99 72.17 36.06Q72.07 36.13 72.02 36.23Q72.17 36.72 71.95 36.99Q71.73 37.26 71.83 37.55Q71.73 38.09 71.66 38.28Q71.58 38.48 71.78 38.72Q71.24 39.21 71.02 40.04Q70.80 40.87 70.90 41.75Q70.51 41.99 70.39 42.41Q70.26 42.82 70.17 43.29Q70.07 43.75 69.95 44.17Q69.82 44.58 69.48 44.82Q69.34 45.41 69.29 46.12Q69.24 46.83 68.85 47.31Q68.95 47.56 69.04 47.78Q69.14 48.00 69.24 48.24Q68.95 48.44 68.58 48.54Q68.21 48.63 67.97 48.83Q67.68 48.73 67.41 48.71Q67.14 48.68 66.89 48.66Q66.65 48.63 66.48 48.51Q66.31 48.39 66.21 48.10Q65.48 48.05 65.58 47.27Q65.58 46.44 65.11 45.61Q64.65 44.78 64.60 44.04Q64.45 43.85 64.26 43.70Q64.06 43.55 63.92 43.31Q63.92 43.12 63.96 42.99Q64.01 42.87 64.06 42.77Q63.96 42.48 63.96 42.21Q63.96 41.94 63.72 41.80Q63.92 41.55 63.70 41.46Q63.48 41.36 63.43 41.16Q63.23 40.72 63.28 40.21Q63.33 39.70 62.94 39.36L62.94 38.72Q62.70 38.48 62.74 38.21Q62.79 37.94 62.45 37.84Q62.55 37.40 62.43 37.08Q62.30 36.77 62.13 36.45Q61.96 36.13 61.82 35.84Q61.67 35.55 61.72 35.21Q61.47 34.96 61.25 34.64Q61.04 34.33 61.08 33.94Q60.69 33.54 60.57 32.91Q60.45 32.28 59.96 31.88Q60.01 31.35 60.21 31.35Q59.96 30.27 59.84 29.54Q59.72 28.81 59.42 28.22Q59.28 27.59 59.23 27.12Q59.18 26.66 59.08 26.22Q58.98 25.78 58.84 25.42Q58.69 25.05 58.35 24.76Q58.40 24.51 58.50 24.29Q58.59 24.07 58.35 23.88Q58.30 23.49 58.37 23.44Q58.45 23.39 58.45 23.29Q58.35 23.19 58.25 23.10Q58.15 23.00 58.01 22.90Q58.11 22.41 58.01 22.22Q57.76 22.36 57.69 22.88Q57.62 23.39 57.32 23.63Q57.13 24.32 57.06 24.95Q56.98 25.59 56.69 26.03Q56.79 26.22 56.74 26.44Q56.69 26.66 56.57 26.88Q56.45 27.10 56.40 27.34Q56.35 27.59 56.45 27.78Q56.25 27.98 56.15 28.22Q56.05 28.47 55.96 28.71Q55.86 28.96 55.74 29.15Q55.62 29.35 55.37 29.49Q55.32 29.98 55.22 30.35Q55.13 30.71 54.88 31.01Q54.88 31.25 54.88 31.47Q54.88 31.69 54.69 31.74Q54.25 32.76 54.17 33.67Q54.10 34.57 53.66 35.30Q53.42 36.33 53.22 36.96Q53.03 37.60 52.88 38.28Q52.73 38.82 52.37 39.60Q52.00 40.38 51.95 41.06Q51.90 41.89 51.81 42.75Q51.71 43.60 51.71 44.58Q51.51 44.97 51.37 45.46Q51.22 45.95 51.42 46.34Q51.22 46.68 51.05 47.02Q50.88 47.36 50.83 47.71Q50.44 48.10 50.37 48.32Q50.29 48.54 50.20 48.73Q49.51 48.68 49.07 48.75Q48.63 48.83 48.00 48.83Q47.90 48.34 47.75 48.24Q47.85 47.75 47.66 47.46Q47.46 47.17 47.41 46.73Q47.07 46.39 46.88 45.95Q46.68 45.51 46.53 45.04Q46.39 44.58 46.22 44.12Q46.04 43.65 45.75 43.26Q45.85 43.02 45.73 42.92Q45.61 42.82 45.70 42.53Q45.56 42.38 45.34 42.33Q45.12 42.29 44.97 42.09Q44.97 41.80 45.07 41.60Q45.17 41.41 45.17 41.16Q45.12 40.72 44.87 40.48Q44.63 40.23 44.53 39.89Q44.53 39.65 44.60 39.40Q44.68 39.16 44.48 38.92Q44.29 38.92 44.21 39.04Q44.14 39.16 43.95 39.21Q43.95 38.92 44.02 38.53Q44.09 38.13 43.85 37.94Q43.75 37.16 43.63 36.67Q43.51 36.18 43.02 35.99Q43.02 35.79 43.14 35.74Q43.26 35.69 43.31 35.50Q43.16 35.11 42.97 34.79Q42.77 34.47 42.43 34.28Q42.53 34.08 42.48 33.81Q42.43 33.54 42.43 33.06Q42.14 32.67 42.07 31.98Q41.99 31.30 41.36 31.01Q41.46 29.93 40.67 29.64Q40.72 28.42 39.84 28.03Q39.94 27.69 39.97 27.49Q39.99 27.29 39.94 26.95Q39.40 26.27 39.36 25.63Q39.31 25 38.82 24.61Q38.72 24.07 38.55 23.80Q38.38 23.54 38.43 23.05Q38.28 22.80 38.18 22.51Q38.09 22.22 37.89 21.97Q37.70 22.07 37.57 22.07Q37.45 22.07 37.30 22.17Q37.11 22.12 37.11 21.95Q37.11 21.78 36.91 21.78Q37.11 21.29 37.40 21.02Q37.70 20.75 37.65 20.21Q37.60 19.82 37.43 19.51Q37.26 19.19 37.26 18.75Q36.96 18.07 36.89 17.87Q36.82 17.68 36.77 17.43Q36.52 17.48 36.35 17.46Q36.18 17.43 35.99 17.38Q36.04 17.19 36.11 17.07Q36.18 16.94 36.23 16.75Q36.23 16.55 36.13 16.26Q36.04 15.97 35.79 15.82Q35.84 15.43 35.62 14.82Q35.40 14.21 34.72 14.21Q34.86 13.82 34.79 13.65Q34.72 13.48 34.42 13.18Q34.18 13.28 34.08 13.33Q33.98 13.38 33.74 13.43Q33.64 13.23 33.74 13.06Q33.84 12.89 33.94 12.74Q33.74 12.65 33.57 12.57Q33.40 12.50 33.30 12.26Q32.86 12.35 32.47 12.13Q32.08 11.91 31.64 11.91Q31.40 11.96 31.18 12.06Q30.96 12.16 30.71 12.16Q30.37 12.11 30.18 11.94Q29.98 11.77 29.69 11.67Q29.64 11.43 29.66 11.30Q29.69 11.18 29.79 10.99Q30.18 10.89 30.54 10.91Q30.91 10.94 31.27 10.99Q31.64 11.04 32.01 11.04Q32.37 11.04 32.76 10.89Q33.64 11.04 34.11 11.08Q34.57 11.13 35.01 11.08Q35.45 10.99 35.74 10.82Q36.04 10.64 36.43 10.45Q36.96 11.08 37.21 10.89Q37.45 10.69 37.70 10.69Q38.09 10.64 38.40 10.77Q38.72 10.89 39.11 10.94Q40.09 10.99 41.02 10.99Q41.94 10.99 43.21 11.13Q43.46 10.99 43.63 10.99Q43.80 10.99 43.99 10.84Q44.63 10.79 45.09 11.01Q45.56 11.23 45.90 10.94Q46.19 11.23 46.61 11.21Q47.02 11.18 47.41 11.43Q47.31 11.67 47.44 11.77Q47.56 11.87 47.46 11.96Q47.31 12.06 47.09 12.08Q46.88 12.11 46.78 12.26Q46.34 12.16 46.00 12.13Q45.65 12.11 45.31 12.21Q44.73 12.45 44.43 12.94Q44.14 13.43 43.51 13.57Q43.36 13.67 43.26 13.84Q43.16 14.01 43.02 14.16Q43.21 14.21 43.41 14.26Q43.60 14.31 43.70 14.40Q43.75 14.65 43.63 14.70Q43.51 14.75 43.55 14.94Q43.26 15.48 43.41 16.26Q43.55 17.04 43.95 17.38Q44.09 17.92 44.19 18.29Q44.29 18.65 44.68 18.90Q44.63 19.34 44.78 19.78Q44.92 20.21 45.09 20.65Q45.26 21.09 45.41 21.53Q45.56 21.97 45.56 22.41Q45.80 22.51 45.85 22.73Q45.90 22.95 45.92 23.22Q45.95 23.49 45.97 23.75Q46.00 24.02 46.14 24.22Q46.44 24.12 46.73 24.12Q47.02 24.12 47.27 24.02Q47.36 24.27 47.14 24.49Q46.92 24.71 46.73 24.61Q46.78 24.80 46.61 25.10Q46.44 25.39 46.48 25.73Q46.83 26.03 47.00 26.46Q47.17 26.90 47.31 27.39Q47.46 27.88 47.61 28.34Q47.75 28.81 48.05 29.15Q48.29 30.03 48.78 30.66Q49.27 31.30 49.37 32.32Q49.46 32.47 49.61 32.54Q49.76 32.62 49.85 32.71Q49.85 33.40 49.98 33.86Q50.10 34.33 50.27 34.77Q50.44 35.21 50.73 35.55Q51.03 35.89 51.46 36.04Q51.42 36.38 51.34 36.47Q51.27 36.57 51.42 36.87Q51.71 36.87 51.98 36.91Q52.25 36.96 52.44 36.82Q52.49 36.57 52.51 36.43Q52.54 36.28 52.69 36.08Q52.64 35.84 52.64 35.67Q52.64 35.50 52.88 35.45Q53.08 34.38 53.32 33.40Q53.56 32.42 54.00 31.49Q53.96 30.96 54.32 30.44Q54.69 29.93 54.69 29.39Q54.88 29.10 55.03 28.78Q55.18 28.47 55.18 27.98Q55.47 27.59 55.71 27.00Q55.96 26.42 55.91 25.83Q56.40 24.90 56.62 23.66Q56.84 22.41 57.37 21.63Q57.28 21.39 57.35 21.19Q57.42 21.00 57.47 20.80Q57.28 20.56 57.30 20.39Q57.32 20.21 57.32 19.87Q57.03 19.63 56.88 19.24Q56.74 18.85 56.62 18.41Q56.49 17.97 56.35 17.55Q56.20 17.14 55.86 16.89Q55.81 16.55 55.74 16.26Q55.66 15.97 55.47 15.77Q55.57 15.58 55.47 15.41Q55.37 15.23 55.25 15.06Q55.13 14.89 55.03 14.75Q54.93 14.60 54.98 14.45Q54.74 14.31 54.69 13.92Q54.64 13.53 54.35 13.38Q54.10 13.48 54.00 13.31Q53.91 13.13 54.00 12.94Q53.42 12.84 52.81 12.77Q52.20 12.70 51.46 12.79Q51.27 12.21 50.83 11.96Q50.88 11.52 51.15 11.40Q51.42 11.28 51.78 11.28Q52.15 11.28 52.56 11.33Q52.98 11.38 53.32 11.23Q53.81 11.77 54.59 11.72Q55.37 11.67 56.20 11.67Q56.64 11.67 57.10 11.74Q57.57 11.82 57.96 11.72Q58.20 11.67 58.35 11.52Q58.50 11.38 58.74 11.57Q59.08 11.38 59.25 11.55Q59.42 11.72 59.77 11.82Q60.94 11.77 61.79 11.87Q62.65 11.96 63.33 11.77Q63.53 11.72 63.84 11.60Q64.16 11.47 64.50 11.67Q64.94 11.52 65.26 11.47Q65.58 11.43 65.87 11.38Q66.16 11.33 66.38 11.38Q66.60 11.43 66.75 11.67Q66.99 11.57 67.24 11.60Q67.48 11.62 67.72 11.67Q67.77 11.87 67.75 11.94Q67.72 12.01 67.72 12.26Q66.60 12.55 65.75 12.72Q64.89 12.89 64.11 12.99Q63.77 13.09 63.48 13.18Q63.18 13.28 63.04 13.67Q62.99 14.11 62.94 14.31Q62.89 14.50 62.84 14.79Q63.13 14.65 63.13 14.84Q63.13 15.04 63.38 15.14Q63.28 15.38 63.11 15.48Q62.94 15.58 62.84 15.77Q62.89 16.16 63.23 16.28Q63.57 16.41 63.72 16.75Q63.33 16.89 63.38 17.29Q63.43 17.68 63.87 17.77Q63.96 18.80 64.14 19.82Q64.31 20.85 64.84 21.48Q64.75 21.92 64.79 22.12Q64.84 22.31 64.84 22.66Q65.04 22.71 65.09 22.92Q65.14 23.14 65.23 23.24Q65.04 23.63 65.04 23.75Q65.04 23.88 65.23 23.88Q65.14 24.12 65.23 24.27Q65.33 24.41 65.43 24.61Q65.33 25.15 65.55 25.56Q65.77 25.98 65.97 26.51Q66.11 27.15 66.46 27.61Q66.80 28.08 67.19 28.42Q67.04 29.10 67.19 29.42Q67.33 29.74 67.38 30.22Q67.72 30.37 67.75 30.57Q67.77 30.76 67.72 31.05Q67.68 31.30 67.80 31.64Q67.92 31.98 68.07 32.23Q68.16 32.32 68.26 32.42Q68.36 32.52 68.41 32.67Q68.46 32.81 68.38 32.96Q68.31 33.11 68.36 33.30Q68.41 33.69 68.65 34.03Q68.90 34.38 68.85 34.81Q69.29 35.40 69.51 36.18Q69.73 36.96 70.46 37.26Q70.41 37.45 70.36 37.67Q70.31 37.89 70.41 37.99Q70.65 37.50 70.90 36.99Q71.14 36.47 71.09 35.94Q71.39 35.45 71.51 34.77Q71.63 34.08 71.88 33.69Q72.71 30.91 73.46 28.47Q74.22 26.03 74.90 23.49Q75.44 22.36 76.00 20.92Q76.56 19.48 76.51 17.97Q76.46 17.58 76.34 17.24Q76.22 16.89 75.88 16.70Q75.98 16.46 75.93 16.33Q75.88 16.21 75.83 16.11Q76.27 15.63 76.00 14.97Q75.73 14.31 75.29 14.06Q74.90 14.16 74.71 14.04Q74.51 13.92 74.39 13.72Q74.27 13.53 74.15 13.28Q74.02 13.04 73.83 12.89Q73.14 12.94 72.53 12.70Q71.92 12.45 71.44 12.74Q71.19 12.16 70.65 11.87Q70.95 11.33 71.14 11.28Q71.34 11.23 71.44 11.13Q72.46 11.23 73.22 11.25Q73.97 11.28 74.80 11.13Q75.39 10.99 75.85 11.11Q76.32 11.23 76.86 10.99Q77.15 11.13 77.47 11.16Q77.78 11.18 78.13 11.16Q78.47 11.13 78.78 11.18Q79.10 11.23 79.35 11.43Q80.08 11.52 80.98 11.57Q81.88 11.62 82.62 11.67Q83.01 11.43 83.52 11.40Q84.03 11.38 84.52 11.43L84.86 11.77M82.08 12.70Q81.40 12.50 80.81 12.87Q80.22 13.23 79.88 13.77Q80.03 13.72 80.27 13.70Q80.52 13.67 80.62 13.72Q80.86 13.23 81.27 13.09Q81.69 12.94 82.08 12.70M77.15 13.13Q77.10 12.89 76.93 12.96Q76.76 13.04 76.51 13.09Q76.51 13.33 76.27 13.38Q76.03 13.43 76.07 13.72Q76.56 13.72 76.66 13.40Q76.76 13.09 77.15 13.13M78.42 16.16Q78.03 16.02 77.78 16.11Q77.54 16.21 77.44 16.31Q76.95 16.85 77.10 17.38Q77.25 17.92 77.15 18.46Q77.44 18.41 77.54 18.09Q77.64 17.77 77.78 17.38Q77.88 17.04 78.15 16.72Q78.42 16.41 78.42 16.16M62.55 13.18Q62.40 12.79 62.08 12.77Q61.77 12.74 61.38 12.82Q60.99 12.89 60.52 12.99Q60.06 13.09 59.72 12.94Q59.91 13.43 59.91 13.50Q59.91 13.57 59.81 13.62Q59.42 13.92 59.33 13.89Q59.23 13.87 59.18 13.92Q59.57 14.06 59.69 14.09Q59.81 14.11 60.06 14.26Q60.06 13.77 60.33 13.77Q60.60 13.77 60.69 13.62Q60.99 13.67 60.99 13.45Q60.99 13.23 61.18 13.18Q61.77 13.04 61.87 12.99Q62.40 13.28 62.43 13.23Q62.45 13.18 62.55 13.18M62.21 16.65Q62.01 16.36 61.84 16.41Q61.67 16.46 61.52 16.55Q61.62 16.85 61.87 16.87Q62.11 16.89 62.21 16.65M59.23 12.84Q58.69 12.84 58.18 12.96Q57.67 13.09 57.37 13.48Q57.62 13.67 57.93 13.75Q58.25 13.82 58.45 13.87Q58.54 13.72 58.37 13.65Q58.20 13.57 58.25 13.33Q58.54 13.38 58.59 13.50Q58.64 13.62 58.84 13.67Q58.89 13.18 59.03 13.11Q59.18 13.04 59.23 12.84M61.96 15.77Q61.52 15.53 61.18 15.75Q60.84 15.97 60.40 16.06Q60.55 16.11 60.74 16.06Q60.94 16.02 60.99 16.26Q60.60 16.11 60.30 16.41Q60.11 16.99 60.23 16.97Q60.35 16.94 60.30 17.04Q60.01 17.19 59.96 17.24Q59.91 17.29 59.86 17.38Q60.21 17.43 60.33 17.29Q60.45 17.14 60.69 17.14Q60.94 16.16 61.96 15.77M62.01 17.43Q62.11 17.04 61.84 17.09Q61.57 17.14 61.47 17.29Q61.77 17.48 62.01 17.43M59.08 14.26Q58.98 14.16 58.81 14.21Q58.64 14.26 58.50 14.26Q59.03 14.65 59.08 14.26M56.49 12.84Q56.30 12.84 56.15 12.92Q56.01 12.99 55.81 12.99Q56.10 13.18 56.27 13.13Q56.45 13.09 56.49 12.84M61.23 14.26Q61.04 14.21 60.94 14.26Q60.84 14.31 60.69 14.31Q60.55 14.65 60.55 14.77Q60.55 14.89 60.35 14.89Q59.86 15.38 59.77 15.60Q59.67 15.82 59.28 15.72Q58.94 15.97 58.84 16.04Q58.74 16.11 58.59 16.21Q58.50 16.06 58.57 15.89Q58.64 15.72 58.74 15.63Q59.23 15.23 59.33 15.33Q59.42 15.63 59.50 15.48Q59.57 15.33 59.86 15.43Q59.62 15.33 59.47 15.19Q59.33 15.04 59.08 14.94Q58.40 15.33 57.81 15.97Q57.47 16.06 57.42 16.11Q57.37 16.16 57.28 16.16Q57.23 16.55 56.84 16.85Q57.03 17.48 57.42 17.43Q57.76 17.24 57.76 17.41Q57.76 17.58 58.01 17.48Q58.06 17.29 57.89 17.24Q57.71 17.19 57.62 17.04Q58.11 16.99 58.13 17.33Q58.15 17.68 57.91 17.72Q57.67 18.46 58.03 18.26Q58.40 18.07 58.54 17.92Q58.89 17.43 59.06 17.02Q59.23 16.60 59.72 16.41Q59.77 16.11 59.99 15.92Q60.21 15.72 60.42 15.55Q60.64 15.38 60.86 15.19Q61.08 14.99 61.18 14.70L61.23 14.26M58.35 14.65Q58.35 14.31 58.15 14.26Q57.96 14.21 58.01 13.92Q57.81 14.06 57.57 14.01Q57.32 13.96 57.23 14.16Q56.93 14.60 56.62 14.72Q56.30 14.84 56.15 15.23Q56.20 15.48 56.45 15.45Q56.69 15.43 56.93 15.38Q57.42 15.23 57.35 15.04Q57.28 14.84 57.57 14.84Q57.86 14.65 57.96 14.45L58.35 14.65M57.18 13.67Q56.64 13.72 56.47 13.60Q56.30 13.48 56.20 13.48Q56.10 13.62 55.96 13.70Q55.81 13.77 55.66 13.82Q55.86 14.36 55.98 14.31Q56.10 14.26 56.25 14.26Q56.69 13.96 56.62 13.79Q56.54 13.62 56.79 13.57L57.18 13.67M63.28 19.87Q63.33 19.73 63.23 19.51Q63.13 19.29 63.09 19.04Q62.70 19.09 62.52 19.36Q62.35 19.63 61.96 19.48Q61.96 19.73 61.84 19.78Q61.72 19.82 61.47 19.92Q61.28 20.41 61.33 20.46Q61.38 20.51 61.43 20.61Q62.11 20.36 62.30 20.36Q62.50 20.36 62.60 20.12Q62.79 20.07 63.28 19.87M62.70 18.41Q62.55 18.12 62.67 17.97Q62.79 17.82 62.60 17.68Q62.01 17.97 61.91 18.07Q61.82 18.16 61.43 18.12Q61.04 18.75 60.86 18.92Q60.69 19.09 60.40 19.19Q59.62 19.19 59.30 19.36Q58.98 19.53 58.94 19.78Q58.59 19.63 58.54 19.63Q58.50 19.63 58.25 19.68Q58.15 19.29 58.42 18.95Q58.69 18.60 59.03 18.85Q58.79 19.09 58.64 19.07Q58.50 19.04 58.54 19.19Q58.98 19.04 59.13 19.02Q59.28 18.99 59.47 18.95Q59.62 18.60 59.86 18.26Q60.35 18.21 60.50 18.07Q60.64 17.92 60.77 17.72Q60.89 17.53 61.04 17.38Q61.18 17.24 61.38 17.24Q60.99 17.14 60.69 17.38Q60.40 17.63 59.81 17.68L59.18 17.82Q59.57 18.12 59.47 18.31L58.98 18.75Q58.98 18.51 58.84 18.43Q58.69 18.36 58.54 18.26Q57.96 19.68 58.45 20.85Q58.89 21.24 58.84 21.29Q59.23 21.44 59.38 21.44Q59.52 21.44 59.57 21.53Q59.86 21.68 60.08 21.73Q60.30 21.78 60.30 21.63Q59.77 21.24 59.72 21.14Q59.72 20.65 60.11 20.51Q60.40 20.75 60.47 20.63Q60.55 20.51 60.84 20.61Q60.74 20.41 60.86 20.17Q60.99 19.92 61.23 20.02Q61.43 19.58 61.21 19.63Q60.99 19.68 61.04 19.43Q61.38 19.53 61.62 19.34Q61.87 19.14 62.21 19.04Q62.55 18.65 62.48 18.65Q62.40 18.65 62.40 18.51L62.70 18.41M63.96 22.71Q63.96 22.95 63.67 22.83Q63.38 22.71 63.38 22.95Q63.53 23.05 63.84 23.00Q64.16 22.95 63.96 22.71M63.53 21.14Q63.33 20.90 63.33 20.51Q63.09 20.90 62.84 21.00Q62.60 21.09 62.45 21.34Q62.16 21.83 61.79 22.12Q61.43 22.41 61.18 22.22Q61.18 22.51 61.06 22.61Q60.94 22.71 60.84 22.90Q61.28 22.71 61.57 22.75Q61.96 22.41 61.94 22.36Q61.91 22.31 61.96 22.27Q62.35 22.07 62.45 21.95Q62.55 21.83 62.84 21.92Q62.94 21.68 63.21 21.56Q63.48 21.44 63.53 21.14M60.69 21.34Q60.50 21.29 60.50 21.12Q60.50 20.95 60.30 20.90Q60.25 21.09 60.23 21.22Q60.21 21.34 60.40 21.44L60.69 21.34M61.82 21.19Q61.33 20.85 61.28 20.95Q61.23 21.04 61.08 21.04Q60.79 21.48 60.86 21.53Q60.94 21.58 60.89 21.68Q60.40 22.02 60.11 21.92Q59.96 22.02 59.77 21.90Q59.57 21.78 59.52 21.68Q59.33 22.02 59.72 22.31Q59.28 22.61 59.20 22.63Q59.13 22.66 59.08 22.75Q59.18 23.29 59.23 23.34Q59.28 23.39 59.23 23.63Q59.62 23.34 59.89 22.92Q60.16 22.51 60.69 22.31Q60.69 21.78 61.18 21.88L61.52 21.44L61.82 21.19M63.82 25Q63.62 25.15 63.48 25.15Q63.33 25.15 63.18 25.05Q63.18 25.24 63.11 25.42Q63.04 25.59 63.28 25.68Q63.43 25.59 63.55 25.39Q63.67 25.20 63.82 25M61.87 24.22Q61.62 24.32 61.50 24.24Q61.38 24.17 61.33 24.32Q61.52 24.27 61.69 24.37Q61.87 24.46 61.87 24.22M65.28 27.05Q65.33 26.61 65.06 26.27Q64.79 25.93 64.75 25.44Q64.21 25.83 64.06 25.98Q63.92 26.12 63.72 26.27Q63.28 26.42 63.18 26.64Q63.09 26.86 62.84 26.90Q62.65 27.10 62.67 27.29Q62.70 27.49 62.45 27.39Q62.65 27.49 62.96 27.42Q63.28 27.34 63.53 27.15Q64.06 27.05 64.09 27.20Q64.11 27.34 64.26 27.34Q64.45 27.25 64.58 27.22Q64.70 27.20 64.79 27.12Q64.89 27.05 65.01 27.00Q65.14 26.95 65.28 27.05M62.74 22.95Q62.50 23.00 62.35 23.02Q62.21 23.05 62.06 23.00Q61.38 23.58 60.89 24.05Q60.40 24.51 59.81 24.85Q59.81 25.05 59.74 25.12Q59.67 25.20 59.72 25.39Q60.11 25.44 60.23 25.42Q60.35 25.39 60.35 25.24Q60.69 24.66 60.86 24.46Q61.04 24.27 61.28 24.46Q61.13 24.07 61.23 24.05Q61.33 24.02 61.38 23.93Q61.72 23.68 62.11 23.49Q62.50 23.29 62.74 22.95M63.53 24.22Q63.48 24.07 63.18 24.17Q62.89 24.27 62.70 24.27Q62.35 24.71 62.43 24.73Q62.50 24.76 62.45 24.85Q62.30 25 62.13 25.07Q61.96 25.15 61.87 25.34Q61.62 25.24 61.55 25.32Q61.47 25.39 61.23 25.39Q61.13 25.78 61.06 25.85Q60.99 25.93 60.79 25.88Q60.69 26.03 60.67 26.22Q60.64 26.42 60.35 26.37Q60.35 26.61 60.21 26.68Q60.06 26.76 60.01 26.95Q60.25 27.34 60.25 27.69Q60.25 28.03 60.40 28.42Q60.64 28.52 60.74 28.39Q60.84 28.27 60.99 28.22Q61.04 27.59 60.99 27.37Q60.94 27.15 60.84 26.90Q60.99 26.81 61.08 26.68Q61.18 26.56 61.43 26.51Q61.28 26.42 61.47 26.17Q61.67 25.93 61.91 25.93Q62.11 25.49 62.04 25.44Q61.96 25.39 62.01 25.29Q62.50 24.71 62.94 24.71Q63.28 24.37 63.33 24.24Q63.38 24.12 63.53 24.22M67.19 31.84Q66.94 32.08 66.70 32.13Q66.46 32.18 66.46 32.47Q66.65 32.47 66.77 32.32Q66.89 32.18 67.04 32.37Q67.09 32.28 67.19 32.13Q67.29 31.98 67.19 31.84M66.60 30.52Q66.60 29.83 66.31 29.49Q66.06 29.83 65.67 29.96Q65.28 30.08 65.23 30.62Q64.89 31.15 64.55 31.23Q64.21 31.30 63.96 31.40Q63.62 31.69 63.62 31.84Q63.62 31.98 63.38 31.93Q63.04 32.52 62.87 32.54Q62.70 32.57 62.79 32.81Q63.13 32.71 63.31 32.47Q63.48 32.23 63.96 32.23Q63.92 31.93 64.28 31.86Q64.65 31.79 64.60 31.54L65.19 31.54Q65.28 31.10 65.67 30.96Q66.06 30.81 66.26 30.42L66.60 30.52M65.77 28.03Q65.63 27.83 65.53 27.59Q65.43 27.34 65.28 27.15Q65.38 27.59 64.92 27.69Q64.45 27.78 64.06 27.88Q63.82 28.56 63.60 28.71Q63.38 28.86 63.18 28.66Q63.33 28.37 63.62 28.17Q63.92 27.98 64.06 27.73Q63.72 27.54 63.45 27.64Q63.18 27.73 62.94 27.83Q62.65 28.03 62.48 28.25Q62.30 28.47 62.01 28.37Q61.87 28.86 61.77 29.05Q61.67 29.25 61.43 29.00Q61.18 29.44 60.89 29.76Q60.60 30.08 60.84 30.76L61.38 31.20Q61.47 30.96 61.38 30.88Q61.28 30.81 61.28 30.62Q61.52 30.27 61.57 30.25Q61.62 30.22 61.72 30.22Q61.77 30.52 62.01 30.47Q62.26 30.42 62.50 30.42Q62.74 30.42 62.96 30.37Q63.18 30.32 63.38 30.13Q63.33 30.62 63.38 30.66Q63.09 30.81 62.84 30.66Q62.65 31.01 62.57 31.13Q62.50 31.25 62.35 31.27Q62.21 31.30 62.06 31.32Q61.91 31.35 61.82 31.45Q61.47 31.64 61.38 32.03Q61.28 32.42 61.43 32.76Q62.16 32.76 62.21 32.28Q62.50 32.13 62.74 31.93Q62.99 31.74 63.28 31.54Q63.82 31.35 63.89 30.91Q63.96 30.47 64.40 30.42Q64.55 30.42 64.67 30.47Q64.79 30.52 64.99 30.62Q65.09 30.42 64.97 30.27Q64.84 30.13 65.09 30.03Q64.94 29.54 65.09 29.42Q65.23 29.30 65.04 29.25Q64.60 29.20 64.38 29.32Q64.16 29.44 64.01 29.35Q64.31 29.69 64.26 29.79Q64.21 29.88 64.06 29.93Q63.92 29.30 64.26 29.10Q64.60 28.91 64.94 28.76Q65.28 28.52 65.58 28.61Q65.58 28.27 65.63 28.17Q65.67 28.08 65.77 28.03M66.80 31.30Q66.36 31.15 66.19 31.25Q66.02 31.35 65.92 31.40Q65.67 31.64 65.31 31.84Q64.94 32.03 64.75 32.37Q63.77 33.01 63.26 33.42Q62.74 33.84 62.21 34.28Q62.16 34.52 62.26 34.64Q62.35 34.77 62.40 34.96Q62.70 34.72 63.04 34.59Q63.38 34.47 63.67 34.28Q63.57 33.94 63.96 33.57Q64.36 33.20 64.70 32.96Q65.04 32.86 65.09 32.69Q65.14 32.52 65.38 32.47Q65.67 32.67 65.82 32.74Q65.97 32.81 66.11 32.71Q66.11 32.18 66.19 32.28Q66.26 32.37 66.36 32.23Q66.16 32.13 66.33 31.81Q66.50 31.49 66.75 31.69L66.80 31.30M68.95 37.01Q68.85 36.91 68.82 36.72Q68.80 36.52 68.70 36.43Q68.21 36.77 68.29 36.79Q68.36 36.82 68.31 36.91Q68.16 37.01 67.99 37.08Q67.82 37.16 67.68 37.26Q67.33 37.45 67.31 37.55Q67.29 37.65 67.09 37.55Q67.19 38.28 67.43 38.43Q67.58 38.33 67.58 38.16Q67.58 37.99 67.48 37.89Q67.87 37.94 68.36 37.89Q68.41 37.84 68.60 37.84Q68.80 37.84 68.90 37.79Q68.85 37.55 68.85 37.35Q68.85 37.16 68.95 37.01M69.68 38.53Q69.19 38.43 68.85 38.62Q68.51 38.82 68.12 38.72Q68.60 38.96 68.68 38.87Q68.75 38.77 68.95 38.77Q68.85 38.87 68.80 39.01Q68.75 39.16 68.60 39.26Q68.75 39.26 69.38 39.16Q69.43 38.96 69.51 38.84Q69.58 38.72 69.68 38.53M67.04 37.06Q66.80 37.01 66.75 37.18Q66.70 37.35 66.60 37.45Q66.85 37.55 66.89 37.38Q66.94 37.21 67.04 37.06M62.45 32.91Q62.45 32.71 62.21 32.74Q61.96 32.76 61.91 33.01Q62.06 32.96 62.21 32.98Q62.35 33.01 62.45 32.91M68.21 38.53Q67.82 38.43 67.72 38.82Q68.07 38.53 68.09 38.57Q68.12 38.62 68.21 38.53M68.51 36.04Q68.55 35.84 68.48 35.72Q68.41 35.60 68.26 35.50Q68.12 35.40 67.94 35.30Q67.77 35.21 67.72 35.01Q67.63 34.72 67.65 34.47Q67.68 34.23 67.58 33.94Q67.19 34.18 67.19 34.38Q66.80 34.81 66.70 34.86Q66.60 34.91 66.50 34.96Q66.26 35.40 65.97 35.69Q65.58 36.08 65.50 36.28Q65.43 36.47 65.19 36.57Q64.70 36.57 64.55 36.52Q64.31 37.16 64.16 37.16Q64.01 37.16 63.87 37.26Q63.72 37.16 63.67 36.99Q63.62 36.82 63.53 36.72Q63.77 36.57 63.87 36.28Q63.96 35.99 64.21 35.79Q64.79 35.60 65.04 35.74Q65.23 35.30 65.31 35.23Q65.38 35.16 65.43 35.01Q65.19 35.01 65.23 35.21Q65.28 35.40 64.99 35.40Q64.99 35.11 65.19 34.96Q65.38 34.81 65.63 34.72Q65.87 34.62 66.09 34.50Q66.31 34.38 66.41 34.18Q66.70 34.13 66.85 34.03Q66.99 33.94 67.04 33.84Q67.33 33.01 67.33 33.11Q67.33 33.20 67.24 32.81Q66.85 32.96 66.60 32.98Q66.36 33.01 66.26 33.20Q66.06 33.50 65.89 33.54Q65.72 33.59 65.72 33.84Q65.04 34.08 64.84 33.79Q64.36 34.03 64.75 34.08Q65.14 34.13 65.23 34.38Q64.84 34.62 64.55 34.84Q64.26 35.06 63.72 35.06Q63.67 35.60 63.35 35.77Q63.04 35.94 62.89 36.33Q63.18 36.72 63.31 37.43Q63.43 38.13 63.72 38.53Q63.82 38.38 63.94 38.18Q64.06 37.99 64.26 38.23Q64.60 38.09 64.84 38.11Q65.09 38.13 65.23 38.28Q65.14 38.43 64.94 38.57Q64.75 38.72 64.50 38.82Q64.36 39.21 64.43 39.26Q64.50 39.31 64.45 39.40Q64.26 39.40 64.28 39.65Q64.31 39.89 64.06 39.84Q64.16 39.99 64.16 40.19Q64.16 40.38 64.40 40.38Q64.50 40.28 64.60 40.16Q64.70 40.04 64.89 39.94Q65.33 40.04 65.50 40.04Q65.67 40.04 65.58 39.79Q65.43 39.21 65.82 38.92Q66.02 39.06 66.19 38.99Q66.36 38.92 66.46 38.77Q66.70 39.06 67.07 38.99Q67.43 38.92 67.68 38.92Q67.09 38.62 66.75 38.62Q66.41 38.62 66.31 38.53Q66.41 38.33 66.43 38.21Q66.46 38.09 66.55 37.99Q66.75 37.55 66.38 37.62Q66.02 37.70 65.77 37.79Q65.82 37.65 65.94 37.30Q66.06 36.96 66.31 37.06Q66.31 36.77 66.06 36.67Q65.82 36.57 65.82 36.33Q66.06 36.38 66.11 36.23Q66.16 36.08 66.36 36.23Q66.55 35.79 66.67 35.69Q66.80 35.60 66.89 35.45Q66.75 35.94 66.80 36.06Q66.85 36.18 66.89 36.33L66.31 36.28Q66.21 36.77 66.43 36.82Q66.65 36.87 66.80 36.96Q66.85 36.67 67.14 36.77Q67.43 36.87 67.68 36.77Q67.72 36.62 67.77 36.43Q67.82 36.23 68.12 36.33L68.51 36.04M41.41 11.87Q41.16 11.87 41.09 12.06Q41.02 12.26 40.72 12.21Q41.06 12.16 41.26 12.13Q41.46 12.11 41.41 11.87M68.41 39.60Q68.26 39.45 68.04 39.53Q67.82 39.60 67.72 39.75Q67.68 40.28 67.68 40.28Q68.31 40.14 68.41 39.60M67.53 39.60Q67.24 39.31 67.16 39.28Q67.09 39.26 66.94 39.26Q66.55 39.65 66.36 39.89Q66.85 40.09 66.85 40.28Q67.19 39.99 67.31 40.01Q67.43 40.04 67.43 39.84L67.53 39.60M66.36 39.45Q66.16 39.26 65.89 39.23Q65.63 39.21 65.72 39.36Q65.92 39.40 66.04 39.50Q66.16 39.60 66.36 39.45M67.82 40.92Q67.43 40.53 67.33 40.50Q67.24 40.48 67.33 40.28Q67.04 40.48 66.92 40.55Q66.80 40.63 66.89 40.82Q67.29 40.63 67.38 40.87Q67.48 41.11 67.29 41.21Q67.68 40.82 67.68 40.89Q67.68 40.97 67.82 40.92M43.21 11.87Q42.38 11.87 41.77 12.35Q41.16 12.84 40.38 12.99Q40.23 13.28 40.06 13.31Q39.89 13.33 39.84 13.09Q39.84 13.09 39.60 13.04Q39.36 12.99 39.26 13.09Q39.26 13.28 39.50 13.26Q39.75 13.23 39.75 13.48Q39.60 13.67 39.38 13.77Q39.16 13.87 38.92 13.72Q38.53 13.92 38.50 13.84Q38.48 13.77 38.33 13.77Q38.62 13.28 38.84 13.16Q39.06 13.04 39.31 12.94Q39.70 12.70 39.84 12.40Q39.99 12.11 40.33 11.96Q39.79 12.01 39.38 12.26Q38.96 12.50 38.57 12.79Q38.18 13.09 37.79 13.40Q37.40 13.72 36.91 13.87Q36.82 14.11 36.62 14.26Q36.43 14.40 36.23 14.60Q36.18 14.89 36.33 15.01Q36.47 15.14 36.57 15.38Q36.82 15.43 36.96 15.45Q37.11 15.48 37.21 15.63Q37.06 15.67 36.96 15.84Q36.87 16.02 36.96 16.21Q37.45 16.06 37.48 15.97Q37.50 15.87 37.65 15.82Q38.13 15.43 38.62 15.63Q38.48 15.14 38.87 15.14Q39.21 15.09 39.31 14.82Q39.40 14.55 39.50 14.65Q39.60 14.75 39.70 14.65Q39.79 14.55 39.84 14.21Q40.09 14.26 40.16 14.06Q40.23 13.87 40.43 14.11Q40.53 13.43 41.11 13.62Q41.46 13.38 41.50 13.26Q41.55 13.13 41.80 13.23Q41.85 12.79 42.58 12.79Q42.48 12.35 42.80 12.26Q43.12 12.16 43.21 11.87M70.12 40.48Q69.73 40.53 69.68 40.63Q69.63 40.72 69.53 40.82Q69.38 40.63 69.21 40.80Q69.04 40.97 68.90 40.72Q69.09 40.48 69.38 40.48Q69.38 40.14 69.53 39.99Q69.68 39.84 69.78 39.55Q69.29 39.84 69.29 39.79Q69.29 39.75 69.19 39.75Q68.85 39.94 68.75 40.28Q68.41 40.43 68.29 40.36Q68.16 40.28 68.12 40.53Q68.02 40.87 67.80 41.14Q67.58 41.41 67.09 41.46Q66.60 41.65 66.58 41.85Q66.55 42.04 66.60 42.19Q66.21 42.29 65.89 42.70Q65.58 43.12 65.19 43.41Q65.23 43.80 65.36 43.99Q65.48 44.19 65.48 44.53Q65.92 44.29 66.06 44.24Q66.21 44.09 66.33 44.02Q66.46 43.95 66.55 43.99Q66.41 43.46 66.75 43.31Q67.09 43.16 67.43 43.21Q67.29 42.87 67.29 42.80Q67.29 42.72 67.38 42.68Q67.72 42.53 67.90 42.60Q68.07 42.68 68.26 42.77Q68.65 42.48 68.90 42.53Q68.99 42.14 69.14 42.14Q69.29 42.14 69.38 42.04Q69.29 41.94 69.19 41.80Q69.09 41.65 68.90 41.55Q68.75 41.55 68.53 41.41Q68.31 41.26 68.55 41.02Q68.70 41.26 68.95 41.24Q69.19 41.21 69.38 41.21Q69.38 41.60 69.73 41.26Q70.07 40.92 70.12 40.48M66.46 40.19Q65.87 40.43 65.65 40.80Q65.43 41.16 64.99 41.31Q64.99 41.60 64.87 41.70Q64.75 41.80 64.70 41.94Q64.89 42.14 64.94 41.94Q64.99 41.75 65.33 41.85Q65.23 41.50 65.48 41.43Q65.72 41.36 65.77 41.06Q65.97 41.11 66.04 41.19Q66.11 41.26 66.31 41.16Q66.11 40.82 66.24 40.63Q66.36 40.43 66.46 40.19M42.24 13.67Q41.99 13.62 41.97 13.79Q41.94 13.96 41.70 13.87Q41.65 14.11 41.43 14.18Q41.21 14.26 41.11 14.21Q40.97 14.40 40.67 14.65Q40.38 14.89 39.99 14.65Q40.04 14.99 39.84 15.33Q39.65 15.67 39.26 15.58Q39.26 15.72 39.09 15.80Q38.92 15.87 38.75 15.92Q38.57 15.97 38.43 16.04Q38.28 16.11 38.33 16.31Q38.13 16.41 38.01 16.55Q37.89 16.70 37.65 16.75Q37.65 16.94 37.52 17.02Q37.40 17.09 37.45 17.33Q37.60 17.43 37.72 17.36Q37.84 17.29 37.99 17.33Q38.38 17.04 38.60 16.70Q38.82 16.36 39.26 16.46Q39.60 16.31 39.79 16.21Q40.23 15.77 40.11 15.75Q39.99 15.72 39.99 15.58Q40.58 15.33 40.92 15.09Q41.26 14.84 41.85 14.65Q42.04 14.06 42.16 13.99Q42.29 13.92 42.24 13.67M36.82 12.16Q36.28 12.01 35.91 12.30Q35.55 12.60 35.25 12.94Q35.45 13.04 35.67 13.01Q35.89 12.99 36.18 13.13Q36.18 12.84 35.99 12.92Q35.79 12.99 35.79 12.74Q36.23 12.60 36.40 12.43Q36.57 12.26 36.82 12.16M35.79 11.82Q35.45 11.82 35.30 11.96Q35.16 12.11 35.01 12.30Q35.40 12.01 35.62 12.04Q35.84 12.06 35.79 11.82M37.11 13.28Q36.62 13.23 36.30 13.40Q35.99 13.57 35.89 13.87Q36.18 13.72 36.43 13.53Q36.67 13.33 37.11 13.28M43.80 18.75Q43.31 18.51 43.51 17.92Q43.21 17.82 43.04 17.36Q42.87 16.89 42.87 16.80Q42.92 16.46 42.68 16.31Q42.43 16.16 42.58 15.92Q42.24 16.06 42.02 16.04Q41.80 16.02 41.65 16.16Q42.04 15.82 42.11 15.72Q42.19 15.63 42.38 15.67Q42.24 15.58 42.33 15.45Q42.43 15.33 42.33 15.14Q41.80 15.33 41.46 15.53Q41.11 15.72 40.72 15.82Q40.14 16.46 39.75 16.75Q39.36 17.04 38.92 17.29Q38.53 17.58 38.26 17.87Q37.99 18.16 37.70 18.41Q37.79 18.65 37.79 18.75Q37.79 18.85 37.89 19.04Q38.13 18.99 38.21 19.12Q38.28 19.24 38.38 19.34Q38.48 18.99 38.48 18.90Q38.48 18.80 38.57 18.80Q39.01 19.04 39.01 18.97Q39.01 18.90 39.11 18.85Q39.16 19.14 39.01 19.31Q38.87 19.48 38.48 19.43L38.18 20.21Q38.43 20.36 38.53 20.29Q38.62 20.21 38.72 20.07Q38.82 19.92 38.94 19.80Q39.06 19.68 39.31 19.73Q39.36 19.48 39.60 19.41Q39.84 19.34 39.99 19.14Q40.53 19.09 40.80 18.97Q41.06 18.85 41.02 18.46Q40.97 18.36 41.19 18.38Q41.41 18.41 41.60 18.43Q41.80 18.46 41.97 18.43Q42.14 18.41 42.29 18.21Q42.38 18.36 42.50 18.33Q42.63 18.31 42.87 18.31Q42.97 18.55 42.97 18.82Q42.97 19.09 42.58 19.19Q42.43 19.34 42.19 19.58Q41.94 19.82 41.70 19.73Q41.21 20.26 41.41 20.61Q41.75 20.61 41.82 20.39Q41.89 20.17 42.19 20.17Q42.14 19.92 42.46 19.82Q42.77 19.73 42.87 19.43Q43.41 19.14 43.51 19.14Q43.60 19.14 43.75 19.04L43.80 18.75M44.38 20.65Q44.14 20.17 43.73 20.56Q43.31 20.95 43.21 21.04Q42.97 21.14 42.80 21.22Q42.63 21.29 42.77 21.39Q43.16 21.14 43.31 21.12Q43.46 21.09 43.55 21.00Q43.85 21.04 43.92 21.02Q43.99 21.00 44.12 20.95Q44.24 20.90 44.31 20.85Q44.38 20.80 44.38 20.65M67.19 44.53Q66.89 44.43 66.80 44.48Q66.70 44.53 66.55 44.43Q66.60 44.53 66.85 44.60Q67.09 44.68 67.19 44.53M68.90 44.58Q68.41 44.87 68.41 44.85Q68.41 44.82 68.31 44.82Q68.02 45.36 67.99 45.53Q67.97 45.70 67.82 45.85Q67.63 45.41 67.60 45.29Q67.58 45.17 67.68 45.12Q67.72 45.02 67.94 45.00Q68.16 44.97 68.26 44.78Q68.46 44.29 68.33 44.04Q68.21 43.80 68.46 43.75Q67.63 44.09 67.48 44.38Q67.33 44.68 67.09 44.92Q66.65 45.12 66.55 45.51Q66.46 45.90 66.11 46.00Q66.21 46.24 66.26 46.44Q66.31 46.63 66.41 46.88Q66.55 46.83 66.70 46.78Q66.85 46.73 66.94 46.88Q67.19 46.78 67.19 46.88Q67.19 46.97 67.29 47.31Q67.33 47.56 67.53 47.61Q67.72 47.66 67.97 47.56Q68.02 47.41 68.02 47.19Q68.02 46.97 68.04 46.78Q68.07 46.58 68.14 46.44Q68.21 46.29 68.46 46.29Q68.55 45.75 68.70 45.43Q68.85 45.12 68.90 44.58M42.24 18.99Q41.80 18.85 41.60 19.09Q41.41 19.34 41.02 19.19Q40.53 19.58 40.16 19.97Q39.79 20.36 39.26 20.41L39.01 20.95Q38.87 21.14 38.77 21.19Q38.67 21.24 38.57 21.29Q38.43 21.53 38.50 21.70Q38.57 21.88 38.57 22.27Q38.82 22.22 38.94 22.05Q39.06 21.88 39.14 21.70Q39.21 21.53 39.33 21.39Q39.45 21.24 39.70 21.19Q39.75 20.85 39.97 20.90Q40.19 20.95 40.28 20.85Q40.33 20.56 40.38 20.46Q40.43 20.36 40.67 20.41Q40.87 20.26 40.82 20.12Q40.77 19.97 40.97 19.82Q41.41 19.58 41.72 19.43Q42.04 19.29 42.24 18.99M46.00 26.12Q45.90 25.88 45.92 25.61Q45.95 25.34 45.65 25.49Q45.46 25.73 45.41 25.90Q45.36 26.07 45.21 26.17Q45.46 26.22 45.63 26.20Q45.80 26.17 46.00 26.12M66.99 47.12Q66.65 47.07 66.55 47.12Q66.46 47.17 66.41 47.22Q66.60 47.27 66.70 47.24Q66.80 47.22 66.99 47.12M43.46 19.92Q43.21 19.97 43.12 20.12Q43.02 20.26 42.68 20.17Q42.29 20.51 42.21 20.41Q42.14 20.31 42.09 20.41Q41.70 20.95 41.67 21.02Q41.65 21.09 41.46 21.00Q41.46 21.19 41.36 21.24Q41.26 21.29 41.11 21.31Q40.97 21.34 40.87 21.36Q40.77 21.39 40.77 21.48Q40.28 21.88 40.06 22.14Q39.84 22.41 39.45 22.31Q38.96 22.61 38.96 23.05Q39.01 23.58 39.31 23.56Q39.60 23.54 39.75 23.73Q40.09 23.34 40.06 23.29Q40.04 23.24 40.23 23.34Q40.63 22.95 40.63 22.75Q40.87 22.71 41.04 22.66Q41.21 22.61 41.16 22.31Q41.65 22.27 41.87 22.14Q42.09 22.02 42.24 21.92Q42.04 21.83 41.82 22.02Q41.60 22.22 41.36 22.02Q41.46 21.83 41.70 21.85Q41.94 21.88 41.85 21.48Q42.14 21.19 42.24 21.04Q42.48 21.19 42.55 20.95Q42.63 20.70 42.87 20.70Q42.82 20.51 42.92 20.41Q43.02 20.31 43.14 20.26Q43.26 20.21 43.36 20.17Q43.46 20.12 43.46 19.92M40.33 21.00Q40.04 21.19 39.89 21.29Q39.75 21.39 39.99 21.48Q39.94 21.24 40.11 21.22Q40.28 21.19 40.33 21.00M46.88 29.44Q47.12 29.15 47.09 28.88Q47.07 28.61 46.97 28.32Q46.88 28.03 46.75 27.73Q46.63 27.44 46.73 27.15Q46.44 26.86 46.04 27.05Q46.14 26.81 46.12 26.73Q46.09 26.66 46.14 26.46Q45.75 26.51 45.51 26.54Q45.26 26.56 44.92 26.71Q44.38 26.66 44.26 26.71Q44.14 26.76 44.14 26.51Q44.19 26.42 44.36 26.42Q44.53 26.42 44.68 26.32Q44.87 25.83 44.92 25.85Q44.97 25.88 45.17 25.83Q45.21 25.34 45.31 25.24Q45.41 25.15 45.36 25Q44.92 25.20 44.80 25.37Q44.68 25.54 44.43 25.44Q44.24 25.88 43.87 26.03Q43.51 26.17 43.41 25.78Q43.95 25.88 44.02 25.56Q44.09 25.24 44.53 25.20Q44.78 24.80 45.09 24.66Q45.41 24.51 45.51 24.12Q45.26 24.12 45.29 23.85Q45.31 23.58 44.97 23.68Q44.58 23.14 44.53 23.22Q44.48 23.29 44.38 23.19Q44.73 22.80 44.90 22.71Q45.07 22.61 44.97 22.36Q44.87 22.27 44.78 22.17Q44.68 22.07 44.73 21.83Q44.29 21.92 44.04 22.27Q43.80 22.61 43.36 22.75Q43.36 23.00 43.14 23.12Q42.92 23.24 42.68 23.05Q42.82 22.85 43.02 22.73Q43.21 22.61 43.31 22.41Q43.51 22.36 43.68 22.22Q43.85 22.07 43.99 21.95Q44.14 21.83 44.24 21.68Q44.34 21.53 44.19 21.29Q44.04 21.39 43.95 21.39Q43.85 21.39 43.65 21.44Q43.26 22.07 42.72 22.27Q42.19 22.46 41.70 22.71Q41.70 22.95 41.55 22.97Q41.41 23.00 41.36 23.19Q40.97 23.34 40.77 23.63Q40.58 23.93 40.14 24.02Q39.79 24.41 39.79 24.78Q39.79 25.15 39.94 25.56Q40.09 25.98 40.28 26.37Q40.48 26.76 40.58 27.20Q40.72 26.95 40.80 27.10Q40.87 27.25 41.11 27.34Q41.50 27.29 41.67 27.29Q41.85 27.29 41.99 27.25Q41.89 26.90 42.04 26.76Q42.19 26.61 42.24 26.37L41.70 26.51Q41.89 26.46 41.92 26.32Q41.94 26.17 42.14 26.17Q42.58 26.12 42.87 26.22Q43.02 25.88 43.36 25.88Q43.31 26.32 43.16 26.51Q43.02 26.71 42.63 26.76Q42.24 27.25 42.11 27.29Q41.99 27.34 42.14 27.44Q41.70 27.93 41.50 28.05Q41.31 28.17 41.21 28.42Q41.55 28.56 41.70 28.56Q41.85 28.56 41.94 28.52Q42.33 28.03 42.63 27.73Q42.92 27.44 43.26 27.22Q43.60 27.00 43.97 26.98Q44.34 26.95 44.68 27.25Q44.09 27.39 43.87 27.51Q43.65 27.64 43.41 27.78Q43.02 28.13 43.04 28.25Q43.07 28.37 42.97 28.37Q42.72 28.37 42.46 28.61Q42.19 28.86 41.99 29.10Q41.80 29.35 41.75 29.61Q41.70 29.88 41.99 30.18Q42.48 30.13 42.80 30.03Q43.12 29.93 43.36 29.98Q43.41 29.59 43.48 29.44Q43.55 29.30 43.80 29.25Q44.19 28.76 44.17 28.71Q44.14 28.66 44.29 28.61Q44.73 28.81 44.82 28.83Q44.92 28.86 45.07 28.96Q44.97 29.54 45.04 29.47Q45.12 29.39 45.17 29.49Q45.07 29.79 44.97 29.83Q44.87 29.88 44.80 29.96Q44.73 30.03 44.65 30.08Q44.58 30.13 44.48 30.03Q44.53 30.47 44.92 30.62Q45.17 30.22 45.51 29.79Q45.85 29.35 46.34 29.54Q46.44 29.49 46.58 29.42Q46.73 29.35 46.88 29.44M44.43 29.30Q44.04 29.64 43.99 29.59Q43.95 29.54 43.85 29.54Q43.80 29.74 43.87 29.86Q43.95 29.98 44.14 30.03Q44.43 29.79 44.53 29.74Q44.63 29.69 44.65 29.59Q44.68 29.49 44.63 29.39Q44.58 29.30 44.43 29.30M47.90 30.52Q47.85 30.32 47.58 30.25Q47.31 30.18 47.36 30.03Q47.31 29.64 46.95 29.61Q46.58 29.59 46.22 29.76Q45.85 29.93 45.51 30.22Q45.17 30.52 44.97 30.76Q44.73 30.76 44.56 30.88Q44.38 31.01 44.29 31.18Q44.19 31.35 44.07 31.47Q43.95 31.59 43.75 31.59Q43.31 32.03 43.14 32.08Q42.97 32.13 42.77 32.23Q42.82 32.52 42.94 32.74Q43.07 32.96 43.16 33.20Q43.51 33.15 43.70 33.23Q43.90 33.30 44.34 33.20Q44.09 32.91 43.97 32.98Q43.85 33.06 43.75 32.91Q43.75 32.71 43.90 32.67Q44.04 32.62 44.14 32.42Q44.43 32.62 44.60 32.64Q44.78 32.67 44.97 32.67Q45.41 32.32 45.51 32.20Q45.61 32.08 45.85 32.08Q46.09 31.64 46.26 31.47Q46.44 31.30 46.83 31.40Q46.83 30.91 47.27 30.86Q47.75 31.01 47.90 30.52M50.15 36.33Q50.15 36.13 50.17 35.89Q50.20 35.64 49.95 35.69Q49.56 35.79 49.71 35.94Q49.85 36.08 49.66 36.33L50.15 36.33M49.56 34.91Q49.71 34.57 49.34 34.35Q48.97 34.13 48.73 34.42Q48.68 34.77 48.54 34.77Q48.39 34.77 48.29 34.86Q48.00 34.91 47.80 35.30Q48.24 35.21 48.34 35.21Q48.54 35.01 48.85 34.99Q49.17 34.96 49.56 34.91M50.73 37.01Q50.78 37.26 50.56 37.23Q50.34 37.21 50.24 37.30Q50.63 37.55 50.78 37.33Q50.93 37.11 50.73 37.01M48.68 32.57Q48.58 32.28 48.54 32.03Q48.49 31.79 48.05 31.79Q47.71 32.03 47.56 32.15Q47.41 32.28 47.31 32.18Q47.46 31.98 47.66 31.88Q47.85 31.79 47.95 31.54Q47.41 31.20 47.22 31.32Q47.02 31.45 46.88 31.64Q46.73 31.84 46.56 31.98Q46.39 32.13 46.04 32.08Q45.75 32.42 45.58 32.64Q45.41 32.86 44.97 32.86Q44.68 33.59 44.34 33.74Q43.99 33.89 43.70 34.03Q43.55 34.42 43.65 34.64Q43.75 34.86 43.80 35.25Q43.95 35.16 44.07 35.11Q44.19 35.06 44.34 34.96Q44.58 34.57 45.17 34.47Q45.26 34.28 45.24 34.23Q45.21 34.18 45.17 33.94Q45.46 34.13 45.61 33.96Q45.75 33.79 45.90 34.03Q46.19 33.50 46.24 33.45Q46.29 33.40 46.39 33.30Q46.24 33.89 46.39 33.81Q46.53 33.74 46.63 33.98Q46.78 33.59 46.95 33.50Q47.12 33.40 47.36 33.50Q47.56 33.20 47.80 33.11Q48.05 33.01 48.34 32.96L48.68 32.57M43.95 30.22Q43.60 30.03 43.46 30.18Q43.31 30.32 42.97 30.27Q42.72 30.81 42.38 30.96Q42.38 31.35 42.63 31.49Q43.12 31.35 43.16 31.47Q43.21 31.59 43.26 31.49Q43.12 31.05 43.04 31.15Q42.97 31.25 42.87 31.05L43.41 30.96Q43.55 30.76 43.68 30.54Q43.80 30.32 43.95 30.22M50.83 37.94Q50.54 37.99 50.46 38.06Q50.39 38.13 50.27 38.21Q50.15 38.28 50.02 38.35Q49.90 38.43 49.90 38.57Q50.05 38.53 50.22 38.53Q50.39 38.53 50.54 38.43Q50.44 38.28 50.63 38.21Q50.83 38.13 50.83 37.94M49.56 37.60Q49.37 37.70 49.39 37.84Q49.41 37.99 49.27 38.09Q49.32 38.09 49.49 37.94Q49.66 37.79 49.56 37.60M50.88 39.01Q50.34 39.40 50.24 39.26Q50.49 39.26 50.59 39.23Q50.68 39.21 50.78 39.31L50.88 39.01M48.73 33.45Q48.34 33.45 47.85 33.74Q47.36 34.03 46.92 34.03Q46.63 34.47 46.36 34.50Q46.09 34.52 46.00 34.77Q46.14 35.06 45.87 35.28Q45.61 35.50 45.21 35.45Q44.87 35.79 44.73 36.04Q44.38 36.33 44.36 36.38Q44.34 36.43 44.24 36.43Q44.19 36.77 44.36 36.89Q44.53 37.01 44.48 37.30Q44.68 37.21 44.80 37.28Q44.92 37.35 45.07 37.26Q45.21 36.77 45.61 36.50Q46.00 36.23 46.29 35.84Q46.68 35.30 47.12 34.99Q47.56 34.67 48.00 34.57Q48.10 34.18 48.36 34.01Q48.63 33.84 48.73 33.45M51.32 40.04Q50.83 40.04 50.88 40.16Q50.93 40.28 50.73 40.19Q51.17 40.28 51.32 40.04M49.71 36.47Q49.51 36.47 49.39 36.43Q49.27 36.38 49.12 36.33Q49.07 36.43 48.85 36.50Q48.63 36.57 48.54 36.47Q48.78 36.13 49.02 36.23Q49.12 36.08 49.15 35.94Q49.17 35.79 49.41 35.84Q49.46 35.30 49.34 35.21Q49.22 35.11 48.97 35.16Q48.88 35.40 48.66 35.60Q48.44 35.79 48.19 35.74Q47.95 36.23 47.71 36.04Q47.17 36.38 46.97 36.65Q46.78 36.91 46.34 36.96Q46.09 37.45 45.70 37.70Q45.31 37.94 44.97 38.33Q45.12 39.01 45.24 39.11Q45.36 39.21 45.56 39.14Q45.75 39.06 45.95 38.92Q46.14 38.77 46.19 38.57Q46.48 38.09 46.68 37.94Q47.27 37.74 47.39 37.45Q47.51 37.16 48.00 37.21Q48.10 37.11 48.12 36.94Q48.14 36.77 48.24 36.72Q48.93 36.67 49.19 36.67Q49.46 36.67 49.71 36.47M49.95 37.16Q49.80 37.06 49.66 36.99Q49.51 36.91 49.27 36.91Q49.07 37.40 48.61 37.55Q48.14 37.70 48.00 38.18Q47.85 38.09 47.66 38.31Q47.46 38.53 47.46 38.67Q47.07 38.77 46.88 39.04Q46.68 39.31 46.34 39.40Q46.14 39.70 46.02 39.92Q45.90 40.14 45.65 40.23L46.19 40.53Q46.24 40.19 46.68 39.94Q46.92 39.70 47.09 39.60Q47.27 39.50 47.36 39.26Q48.19 38.87 48.39 38.48Q48.93 38.13 48.90 37.96Q48.88 37.79 48.97 37.74Q49.51 37.45 49.71 37.43Q49.90 37.40 49.95 37.16M50.34 38.82Q50.10 38.82 49.73 38.67Q49.37 38.53 49.12 38.72Q49.07 39.01 48.83 39.28Q48.58 39.55 48.14 39.55Q48.44 39.94 48.41 40.04Q48.39 40.14 48.29 40.23Q48.10 40.14 47.71 40.23Q47.71 40.48 47.51 40.58Q47.31 40.67 47.12 40.77Q46.92 40.87 46.80 40.99Q46.68 41.11 46.78 41.41Q46.58 41.41 46.56 41.60Q46.53 41.80 46.29 41.70Q46.34 41.94 46.26 42.16Q46.19 42.38 46.44 42.38Q46.44 41.89 46.88 41.94Q47.17 41.55 47.44 41.26Q47.71 40.97 48.24 40.87Q48.19 40.67 48.27 40.55Q48.34 40.43 48.46 40.33Q48.58 40.23 48.73 40.14Q48.88 40.04 48.93 39.89Q49.51 39.60 49.68 39.72Q49.85 39.84 50.05 39.60Q49.95 39.45 49.73 39.48Q49.51 39.50 49.41 39.31Q49.90 39.06 50.05 38.99Q50.20 38.92 50.34 38.82M50.63 40.23Q50.54 39.94 50.15 39.84Q50.20 40.14 50.05 40.26Q49.90 40.38 49.66 40.50Q49.41 40.63 49.22 40.75Q49.02 40.87 49.02 41.16Q48.63 41.75 47.80 41.75Q47.56 42.33 47.49 42.46Q47.41 42.58 47.02 42.58Q47.17 42.72 47.09 42.92Q47.02 43.12 46.92 43.29Q46.83 43.46 46.78 43.65Q46.73 43.85 46.97 44.04Q47.31 43.95 47.46 43.90Q47.61 43.85 47.95 43.80Q47.41 43.80 47.41 43.70Q47.41 43.60 47.36 43.55Q47.51 43.36 47.68 43.21Q47.85 43.07 48.00 42.87L48.63 42.87Q48.63 42.38 48.78 42.09Q48.93 41.80 49.32 41.94Q49.61 41.41 49.51 41.38Q49.41 41.36 49.46 41.26Q49.90 40.92 50.12 40.97Q50.34 41.02 50.39 40.82Q50.20 40.38 50.27 40.26Q50.34 40.14 50.63 40.23M51.17 41.55Q50.98 41.31 51.12 41.04Q51.27 40.77 51.03 40.53Q50.88 40.77 50.68 40.94Q50.49 41.11 50.34 41.36Q50.24 41.26 50.02 41.24Q49.80 41.21 49.80 41.46Q49.80 42.04 49.61 42.11Q49.41 42.19 49.37 42.38Q49.17 42.24 49.05 42.31Q48.93 42.38 48.68 42.38Q49.02 42.68 49.22 42.77Q49.46 42.68 49.68 42.65Q49.90 42.63 50 42.38Q50.59 42.53 50.68 42.53Q50.78 42.53 50.78 42.68Q50.54 42.72 50.61 42.99Q50.68 43.26 50.34 43.31Q50.05 43.07 50.07 43.38Q50.10 43.70 50 43.95Q49.76 43.70 49.83 43.58Q49.90 43.46 49.80 43.41Q49.17 43.31 49.00 43.58Q48.83 43.85 48.54 43.95Q48.34 44.53 48.27 44.68Q48.19 44.82 47.90 44.78Q47.80 44.97 47.71 45.09Q47.61 45.21 47.51 45.36Q47.71 45.61 47.80 45.95Q47.90 46.29 48.24 46.44Q48.68 46.53 48.73 46.53Q48.78 46.53 48.73 46.73Q48.88 46.78 48.97 46.80Q49.07 46.83 49.27 46.73Q49.12 46.97 48.90 47.14Q48.68 47.31 48.78 47.56Q49.32 47.66 49.61 47.41Q49.90 47.17 50.05 46.78Q50.39 45.75 50.66 44.56Q50.93 43.36 50.93 42.09Q51.07 41.99 51.17 41.55M58.69 16.46Q58.15 16.89 58.18 16.70Q58.20 16.50 58.11 16.36Q58.59 16.36 58.59 16.41Q58.59 16.46 58.69 16.46M63.33 29.20Q62.70 29.39 62.89 29.74Q62.60 29.83 62.35 29.74Q62.35 29.98 62.18 30.08Q62.01 30.18 61.82 30.27Q61.72 30.18 61.79 29.98Q61.87 29.79 61.96 29.69L62.55 29.39Q63.04 29.10 62.99 28.86L63.33 29.20M67.58 34.91Q67.48 34.67 67.36 34.62Q67.24 34.57 67.24 34.38Q67.43 34.62 67.55 34.72Q67.68 34.81 67.58 34.91M67.87 35.50Q67.48 35.50 67.46 35.62Q67.43 35.74 67.38 35.84Q67.24 35.64 67.29 35.52Q67.33 35.40 67.38 35.21Q67.68 35.16 67.72 35.28Q67.77 35.40 67.87 35.50M65.92 37.26Q65.67 37.21 65.53 37.26Q65.38 37.30 65.19 37.26Q65.63 37.11 65.70 37.11Q65.77 37.11 65.92 37.26M65.72 38.04Q65.28 37.70 65.14 37.77Q64.99 37.84 64.89 37.89Q65.04 37.65 64.94 37.21Q65.38 37.45 65.43 37.72Q65.48 37.99 65.72 38.04M68.55 42.19Q68.21 42.58 68.09 42.50Q67.97 42.43 67.82 42.53Q67.68 42.24 67.77 42.14Q67.87 42.04 67.97 41.94Q68.41 41.60 68.33 41.60Q68.26 41.60 68.31 41.41Q68.55 41.41 68.53 41.70Q68.51 41.99 68.55 42.19M39.11 14.11Q38.92 14.16 38.84 14.26Q38.77 14.36 38.67 14.45Q38.48 14.36 38.40 14.50Q38.33 14.65 38.13 14.65Q38.48 14.50 38.65 14.26Q38.82 14.01 39.11 14.11M42.24 17.53Q42.14 17.63 42.04 17.77Q41.94 17.92 41.82 18.02Q41.70 18.12 41.58 18.14Q41.46 18.16 41.36 17.97Q41.50 17.87 41.38 17.63Q41.26 17.38 41.41 17.19Q41.46 17.63 41.63 17.63Q41.80 17.63 41.85 17.72L42.24 17.53M40.77 16.99Q40.53 16.99 40.48 17.11Q40.43 17.24 40.19 17.24Q40.48 16.85 40.63 16.87Q40.77 16.89 40.77 16.99M41.21 17.53Q40.87 17.87 40.70 17.97Q40.53 18.07 40.33 17.97Q40.53 17.63 41.21 17.53M37.74 14.31Q37.55 14.65 37.35 14.89Q37.26 14.31 37.43 14.36Q37.60 14.40 37.60 14.21L37.74 14.31M38.09 14.65Q37.99 14.94 37.79 15.09Q37.60 15.23 37.45 15.43Q37.70 14.94 37.70 14.99Q37.70 15.04 37.79 14.99L38.09 14.65M40.58 18.21Q40.09 18.46 40.06 18.36Q40.04 18.26 39.89 18.31Q40.04 18.02 40.58 18.21M37.11 14.84Q37.01 14.99 36.94 15.16Q36.87 15.33 36.62 15.33Q36.77 15.04 36.82 14.94Q36.87 14.84 37.11 14.84M39.94 17.63Q39.65 18.02 39.72 18.04Q39.79 18.07 39.70 18.16Q39.45 18.21 39.31 18.19Q39.16 18.16 39.16 18.41Q38.82 18.16 38.94 18.14Q39.06 18.12 39.16 17.87Q39.40 17.97 39.50 17.72Q39.60 17.48 39.89 17.48L39.94 17.63M42.68 23.63Q42.24 23.44 42.29 23.36Q42.33 23.29 42.43 23.05Q42.68 23.29 42.68 23.63M43.85 24.80Q43.80 25.05 43.60 25.17Q43.41 25.29 43.21 25.20Q43.21 25.05 43.31 25.02Q43.41 25 43.51 25Q43.60 25 43.65 24.95Q43.70 24.90 43.70 24.76L43.85 24.80M45.90 27.15Q45.80 27.25 45.73 27.34Q45.65 27.44 45.41 27.39Q45.56 27.10 45.68 27.12Q45.80 27.15 45.90 27.15M43.75 23.54Q43.26 24.02 43.04 24.12Q42.82 24.22 42.60 24.32Q42.38 24.41 42.19 24.54Q41.99 24.66 41.94 24.95Q41.80 25 41.65 25.10Q41.50 25.20 41.36 25.29Q41.21 25.39 41.06 25.39Q40.92 25.39 40.72 25.20Q40.87 24.66 40.94 24.51Q41.02 24.37 41.21 24.27Q41.55 24.71 41.41 24.68Q41.26 24.66 41.31 24.80Q41.41 24.95 41.53 24.78Q41.65 24.61 41.85 24.71Q41.75 24.32 42.19 24.19Q42.63 24.07 43.02 23.97Q43.07 23.73 43.33 23.58Q43.60 23.44 43.75 23.54M42.09 23.88Q41.65 24.32 41.60 24.24Q41.55 24.17 41.46 24.22Q41.80 23.88 41.87 23.83Q41.94 23.78 42.09 23.88M46.48 28.17Q46.44 28.42 46.24 28.52Q46.04 28.61 46.04 28.96Q45.90 29.10 45.85 29.27Q45.80 29.44 45.56 29.44Q45.36 29.10 45.29 28.88Q45.21 28.66 45.17 28.32Q45.80 28.03 46.02 28.08Q46.24 28.13 46.48 28.17M47.22 30.27Q46.83 30.62 46.80 30.71Q46.78 30.81 46.63 30.71Q46.78 30.52 46.85 30.42Q46.92 30.32 47.22 30.27M47.56 32.32Q47.46 32.42 47.41 32.57Q47.36 32.71 47.17 32.71Q47.22 32.32 47.56 32.32M46.24 31.05Q45.85 31.40 45.80 31.42Q45.75 31.45 45.75 31.35Q45.85 31.05 45.95 30.96Q46.04 30.86 46.19 30.81L46.24 31.05M45.51 31.84Q45.21 31.93 44.95 32.08Q44.68 32.23 44.53 32.47Q44.53 32.23 44.73 32.01Q44.92 31.79 44.92 31.59Q45.36 31.64 45.46 31.67Q45.56 31.69 45.51 31.84M49.80 44.19Q49.66 44.78 49.46 44.68Q49.51 44.82 49.44 44.92Q49.37 45.02 49.41 45.21Q49.32 45.26 49.10 45.36Q48.88 45.46 48.97 45.61Q48.93 45.85 48.75 45.87Q48.58 45.90 48.34 45.90Q48.39 45.70 48.54 45.65Q48.68 45.61 48.83 45.56Q48.88 45.21 48.90 45.14Q48.93 45.07 49.02 45.02Q49.32 44.53 49.22 44.48Q49.12 44.43 49.12 44.34Q49.46 44.24 49.54 44.19Q49.61 44.14 49.66 43.99L49.80 44.19Z"/></g></g></svg>