<svg xmlns="http://www.w3.org/2000/svg" viewBox="0 7 69.94999694824219 36" data-asc="0.86" width="69.94999694824219" height="36"><defs/><g fill="#0040ff"><g transform="translate(0, 0)"><path d="M19.05 43L10.95 43Q10 43 9.58 42.58Q9.15 42.15 9.15 41.20L9.15 16.65L1.80 16.65Q0.85 16.65 0.43 16.22Q0 15.80 0 14.85L0 8.80Q0 7.85 0.43 7.42Q0.85 7 1.80 7L28.20 7Q29.15 7 29.58 7.42Q30.00 7.85 30.00 8.80L30.00 14.85Q30.00 15.80 29.58 16.22Q29.15 16.65 28.20 16.65L20.85 16.65L20.85 41.20Q20.85 42.15 20.43 42.58Q20.00 43 19.05 43ZM60.70 7L68.15 7Q69.10 7 69.53 7.42Q69.95 7.85 69.95 8.80L69.95 28.20Q69.95 29.80 69.83 31.17Q69.70 32.55 69.05 34.40L66.55 41.20Q66.30 41.95 65.83 42.48Q65.35 43 64.55 43L57.90 43Q57.10 43 56.45 42.65Q55.80 42.30 55.60 41.50L53.30 33.35Q53.15 32.85 52.93 32.67Q52.70 32.50 52.40 32.50L51.95 32.50Q51.65 32.50 51.43 32.67Q51.20 32.85 51.05 33.35L48.70 41.50Q48.50 42.25 47.95 42.63Q47.40 43 46.60 43L40.00 43Q39.20 43 38.63 42.50Q38.05 42 37.80 41.20L35.30 34.30Q34.65 32.45 34.53 31.07Q34.40 29.70 34.40 28.10L34.40 8.80Q34.40 7.85 34.83 7.42Q35.25 7 36.20 7L43.90 7Q44.85 7 45.28 7.42Q45.70 7.85 45.70 8.80L45.70 27.20L48.60 20.90Q49.00 20.05 49.65 19.70Q50.30 19.35 51.25 19.35L53.35 19.35Q54.30 19.35 54.95 19.70Q55.60 20.05 56.00 20.90L58.90 27.20L58.90 8.80Q58.90 7.85 59.33 7.42Q59.75 7 60.70 7Z"/></g></g></svg>